<svg width="51" height="156" viewBox="0 0 51 156" fill="none" xmlns="http://www.w3.org/2000/svg">
<circle cx="26" cy="45" r="15.5" stroke="#C4C4C4"/>
<path d="M26.5 65L28.8868 60H23.1132L25.5 65H26.5ZM25.5 68.8831V72.8312H26.5V68.8831H25.5ZM25.5 79.7403V83.6883H26.5V79.7403H25.5ZM25.5 90.5974V94.5455H26.5L26.5 90.5974H25.5ZM25.5 101.455V105.403H26.5V101.455H25.5ZM25.5 112.312V116.26H26.5V112.312H25.5ZM25.5 123.169V127.117H26.5V123.169H25.5ZM25.5 134.026V136H26.5V134.026H25.5Z" fill="#C4C4C4"/>
<circle cx="25.5" cy="142.5" r="8" stroke="black" stroke-opacity="0.6"/>
<line x1="25.5" y1="129" x2="25.5" y2="137" stroke="black" stroke-opacity="0.6"/>
<line x1="25.5" y1="148" x2="25.5" y2="156" stroke="black" stroke-opacity="0.6"/>
<line x1="39" y1="142.5" x2="12" y2="142.5" stroke="black" stroke-opacity="0.6"/>
<circle cx="25.5" cy="142.5" r="5.5" fill="#070000" fill-opacity="0.6"/>
<line x1="25.5" y1="137" x2="25.5" y2="148" stroke="white"/>
<line x1="31" y1="142.5" x2="20" y2="142.5" stroke="white"/>
<path d="M14.8967 11.7018V16.5585C14.8967 16.9992 14.9306 17.3637 14.9984 17.6519C15.0662 17.9231 15.2018 18.135 15.4053 18.2876C15.6256 18.4401 15.9392 18.5419 16.3461 18.5927C16.7529 18.6436 17.3039 18.669 17.9989 18.669C18.7108 18.669 19.2872 18.6351 19.7279 18.5673C20.1687 18.4825 20.5247 18.3215 20.7959 18.0842C21.0671 17.8299 21.2621 17.4739 21.3807 17.0162C21.4994 16.5585 21.6011 15.9482 21.6859 15.1854C21.8554 15.5753 22.0673 15.8635 22.3216 16.05C22.5758 16.2195 22.8894 16.3212 23.2624 16.3551C23.042 17.1349 22.8047 17.7705 22.5504 18.2621C22.3131 18.7368 22.008 19.1097 21.635 19.381C21.2621 19.6352 20.7959 19.8048 20.2365 19.8895C19.694 19.9743 19.016 20.0167 18.2023 20.0167C17.2021 20.0167 16.3885 19.9743 15.7612 19.8895C15.134 19.8048 14.6509 19.6607 14.3119 19.4572C13.9728 19.2369 13.744 18.9402 13.6253 18.5673C13.5067 18.1774 13.4473 17.6773 13.4473 17.0671V6.56547C13.4473 6.03997 13.4473 5.6077 13.4473 5.26867C13.4473 4.91268 13.4389 4.61603 13.4219 4.3787C13.405 4.12443 13.388 3.92101 13.3711 3.76844C13.3541 3.61588 13.3372 3.46331 13.3202 3.31075C13.744 3.41246 14.2864 3.48026 14.9476 3.51417C15.6087 3.54807 16.5495 3.56502 17.77 3.56502C18.3803 3.56502 18.8973 3.56502 19.3211 3.56502C19.7618 3.54807 20.1348 3.53112 20.4399 3.51417C20.762 3.48026 21.0417 3.44636 21.279 3.41246C21.5164 3.37855 21.7452 3.33617 21.9656 3.28532C21.9147 3.62435 21.8808 3.95491 21.8639 4.27699C21.8469 4.58212 21.8384 5.01439 21.8384 5.5738V8.98109C21.8384 9.71001 21.8469 10.3966 21.8639 11.0407C21.8978 11.6679 21.9317 12.3375 21.9656 13.0495H20.3636V11.7018H14.8967ZM20.3636 10.5067V4.78554H14.8967V10.5067H20.3636ZM8.26012 10.2016C8.81952 10.2016 9.3196 10.2016 9.76034 10.2016C10.218 10.1847 10.6249 10.1762 10.9809 10.1762C11.3369 10.1592 11.6589 10.1423 11.9471 10.1253C12.2522 10.0914 12.5404 10.0575 12.8117 10.0236V11.5747C12.2183 11.5069 11.625 11.4645 11.0317 11.4476C10.4384 11.4137 9.76034 11.3967 8.99752 11.3967V15.3126C9.89596 15.3126 10.6079 15.3041 11.1334 15.2871C11.6589 15.2532 12.0912 15.2024 12.4302 15.1346V16.6348C12.0912 16.5839 11.6505 16.55 11.108 16.5331C10.5655 16.4992 9.86205 16.4822 8.99752 16.4822V21.2626C9.52302 21.466 10.2096 21.661 11.0571 21.8474C11.9047 22.017 12.9473 22.1441 14.1847 22.2288C15.4392 22.3306 16.9055 22.3645 18.5837 22.3306C20.2619 22.2967 22.2029 22.1695 24.4066 21.9491C23.9489 22.4407 23.7201 23.068 23.7201 23.8308C22.1097 23.8816 20.6942 23.9071 19.4737 23.9071C18.2531 23.924 17.1682 23.9155 16.2189 23.8816C15.2696 23.8477 14.4305 23.7884 13.7016 23.7036C12.9727 23.6358 12.3031 23.5426 11.6928 23.4239C10.7605 23.2544 9.92138 23.0341 9.17551 22.7628C8.44659 22.5086 7.78547 22.1949 7.19216 21.822C6.6158 21.4491 6.09878 21.0168 5.64108 20.5252C5.20034 20.0336 4.81045 19.4572 4.47141 18.7961C4.28494 19.6268 4.0561 20.4743 3.78487 21.3389C3.53059 22.2034 3.25089 23.0256 2.94576 23.8054C2.65758 23.5511 2.38635 23.3646 2.13208 23.246C1.89475 23.1442 1.57267 23.068 1.16583 23.0171C1.9117 22 2.51349 20.6608 2.97119 18.9995C3.44583 17.3383 3.68316 15.4821 3.68316 13.4309C4.02219 13.5326 4.32732 13.6089 4.59855 13.6598C4.86978 13.7106 5.15796 13.753 5.46309 13.7869C5.64956 13.8039 5.75974 13.8801 5.79365 14.0157C5.82755 14.1514 5.75127 14.3124 5.5648 14.4989C5.49699 14.5667 5.43766 14.643 5.3868 14.7277C5.33595 14.7955 5.28509 14.9142 5.23424 15.0837C5.18338 15.2363 5.12405 15.4482 5.05625 15.7194C5.00539 15.9906 4.93758 16.3466 4.85283 16.7874C5.25967 17.6349 5.69193 18.3639 6.14963 18.9741C6.62428 19.5674 7.08197 20.0506 7.52272 20.4235V11.3967C6.72599 11.3967 6.03944 11.4052 5.46309 11.4221C4.88673 11.4221 4.3697 11.4306 3.91201 11.4476C3.45431 11.4476 3.02204 11.4645 2.6152 11.4984C2.20836 11.5154 1.79304 11.5408 1.36925 11.5747V10.0236C1.77609 10.0575 2.16598 10.0914 2.53892 10.1253C2.91186 10.1423 3.30174 10.1592 3.70859 10.1762C4.13238 10.1762 4.59007 10.1847 5.08167 10.2016C5.57327 10.2016 6.13268 10.2016 6.75989 10.2016V6.38748C5.8106 6.38748 4.99692 6.40443 4.31885 6.43834C3.64078 6.45529 3.00509 6.49767 2.41178 6.56547V5.03982C2.98814 5.10763 3.61535 5.15848 4.29342 5.19239C4.97149 5.20934 5.79365 5.21781 6.75989 5.21781V3.79387C6.75989 3.20056 6.74294 2.71744 6.70904 2.3445C6.69209 1.97156 6.64971 1.62405 6.5819 1.30197C6.88703 1.36978 7.19216 1.42063 7.49729 1.45453C7.81937 1.47149 8.10755 1.47149 8.36183 1.45453C8.56525 1.43758 8.69239 1.51387 8.74324 1.68338C8.81105 1.83595 8.76019 1.96309 8.59068 2.0648C8.45506 2.14955 8.36183 2.25974 8.31097 2.39535C8.27707 2.53097 8.26012 2.78524 8.26012 3.15818V5.21781C9.17551 5.21781 9.92139 5.20934 10.4977 5.19239C11.0741 5.15848 11.6166 5.10763 12.1251 5.03982V6.56547C11.6166 6.49767 11.0656 6.45529 10.4723 6.43834C9.89596 6.40443 9.15856 6.38748 8.26012 6.38748V10.2016ZM44.0113 10.1508H31.7806V15.0583H44.0113V10.1508ZM37.9595 8.85395C39.4004 8.85395 40.5785 8.85395 41.4939 8.85395C42.4263 8.837 43.1806 8.82005 43.757 8.8031C44.3333 8.78615 44.7741 8.76919 45.0792 8.75224C45.4013 8.71834 45.6725 8.68444 45.8929 8.65053C45.842 9.15908 45.7997 9.65068 45.7658 10.1253C45.7319 10.6 45.7149 11.1424 45.7149 11.7527V14.092C45.7149 14.7701 45.7319 15.3549 45.7658 15.8465C45.7997 16.3212 45.859 16.8297 45.9438 17.3722H44.0113V16.3297H31.7806V17.6773H29.8227C29.8735 17.4061 29.9159 17.1688 29.9498 16.9653C29.9837 16.745 30.0092 16.5246 30.0261 16.3042C30.0431 16.0839 30.0515 15.8465 30.0515 15.5923C30.0685 15.338 30.077 15.0413 30.077 14.7023V11.7527C30.077 11.3289 30.0685 10.9644 30.0515 10.6593C30.0515 10.3372 30.0431 10.066 30.0261 9.84563C30.0261 9.6083 30.0092 9.39641 29.9753 9.20994C29.9583 9.02347 29.9329 8.837 29.899 8.65053C30.2041 8.68444 30.5092 8.71834 30.8144 8.75224C31.1364 8.76919 31.5263 8.78615 31.984 8.8031C32.4587 8.82005 33.035 8.837 33.7131 8.85395C34.3912 8.85395 35.2388 8.85395 36.2559 8.85395V5.16696C36.2559 4.25157 36.2304 3.50569 36.1796 2.92933C36.1457 2.33602 36.0863 1.819 36.0016 1.37825C36.4254 1.47996 36.7898 1.54777 37.095 1.58167C37.4001 1.59862 37.7646 1.56472 38.1884 1.47996C38.3918 1.44606 38.5104 1.51387 38.5443 1.68338C38.5782 1.83595 38.4935 1.98004 38.2901 2.11565C38.0697 2.25126 37.9595 2.74286 37.9595 3.59045V4.60755H43.3247C44.4605 4.60755 45.4267 4.5906 46.2235 4.5567C47.0371 4.50584 47.7067 4.44651 48.2322 4.3787V6.15863C47.2321 6.00607 45.5962 5.92978 43.3247 5.92978H37.9595V8.85395ZM31.6026 19.381C31.128 20.415 30.6194 21.3474 30.077 22.178C29.5345 23.0086 29.009 23.7206 28.5005 24.3139L27.0765 23.3477C27.3647 23.1273 27.6613 22.8391 27.9665 22.4831C28.2716 22.1271 28.5598 21.7372 28.831 21.3135C29.1192 20.8727 29.3735 20.4235 29.5938 19.9658C29.8312 19.4911 30.0176 19.025 30.1532 18.5673L31.6026 19.381ZM35.315 24.0851C35.2303 23.6613 35.137 23.2629 35.0353 22.89C34.9506 22.534 34.8489 22.178 34.7302 21.822C34.6115 21.4491 34.4759 21.0761 34.3234 20.7032C34.1877 20.3133 34.0182 19.898 33.8148 19.4572L35.2133 18.847C35.6541 19.8302 36.0185 20.7117 36.3067 21.4914C36.6118 22.2712 36.8322 22.9493 36.9678 23.5257L35.315 24.0851ZM41.4431 23.7036C41.121 22.89 40.765 22.1526 40.3751 21.4914C40.0022 20.8134 39.5191 20.0929 38.9257 19.3301L40.1717 18.4401C40.765 19.2369 41.2905 20.0421 41.7482 20.8558C42.2059 21.6694 42.5788 22.4068 42.867 23.068L41.4431 23.7036ZM47.9017 23.6528C47.5457 22.9069 47.0795 22.161 46.5032 21.4152C45.9438 20.6523 45.2487 19.8217 44.4181 18.9233L45.5878 17.9316C47.1643 19.6607 48.4102 21.2372 49.3256 22.6611L47.9017 23.6528Z" fill="#A9A8A8"/>
</svg>
