<svg width="59" height="154" viewBox="0 0 59 154" fill="none" xmlns="http://www.w3.org/2000/svg">
<circle cx="30" cy="43" r="15.5" stroke="#C4C4C4"/>
<path d="M30.5 63L32.8868 58H27.1132L29.5 63H30.5ZM29.5 66.8831V70.8312H30.5V66.8831H29.5ZM29.5 77.7403V81.6883H30.5V77.7403H29.5ZM29.5 88.5974V92.5455H30.5L30.5 88.5974H29.5ZM29.5 99.4545V103.403H30.5V99.4545H29.5ZM29.5 110.312V114.26H30.5V110.312H29.5ZM29.5 121.169V125.117H30.5V121.169H29.5ZM29.5 132.026V134H30.5V132.026H29.5Z" fill="#C4C4C4"/>
<circle cx="29.5" cy="140.5" r="8" stroke="black" stroke-opacity="0.6"/>
<line x1="29.5" y1="127" x2="29.5" y2="135" stroke="black" stroke-opacity="0.6"/>
<line x1="29.5" y1="146" x2="29.5" y2="154" stroke="black" stroke-opacity="0.6"/>
<line x1="43" y1="140.5" x2="16" y2="140.5" stroke="black" stroke-opacity="0.6"/>
<circle cx="29.5" cy="140.5" r="5.5" fill="#070000" fill-opacity="0.6"/>
<line x1="29.5" y1="135" x2="29.5" y2="146" stroke="white"/>
<line x1="35" y1="140.5" x2="24" y2="140.5" stroke="white"/>
<path d="M6.80392 15.5945L4.59391 17.8914V24H2.21007V5.9226H4.59391V14.862L12.6269 5.9226H15.5074L8.39314 13.906L16.0661 24H13.2105L6.80392 15.5945ZM25.1048 24H22.7955V8.69132L18.1644 10.3923V8.30643L24.7447 5.83569H25.1048V24ZM43.1698 16.2898C43.1698 18.9799 42.7104 20.9788 41.7916 22.2866C40.8729 23.5944 39.4368 24.2483 37.4834 24.2483C35.5548 24.2483 34.127 23.611 33.1999 22.3363C32.2729 21.0533 31.7928 19.1413 31.7597 16.6002V13.5335C31.7597 10.8765 32.2191 8.90239 33.1378 7.61115C34.0566 6.3199 35.4968 5.67428 37.4585 5.67428C39.4037 5.67428 40.8356 6.29921 41.7544 7.54907C42.6732 8.79065 43.145 10.711 43.1698 13.31V16.2898ZM40.8729 13.1486C40.8729 11.2035 40.5997 9.78805 40.0534 8.90239C39.5071 8.00845 38.6422 7.56148 37.4585 7.56148C36.2832 7.56148 35.4265 8.00431 34.8885 8.88997C34.3504 9.77563 34.0732 11.1372 34.0566 12.9748V16.6498C34.0566 18.6033 34.338 20.0476 34.9009 20.983C35.472 21.91 36.3328 22.3735 37.4834 22.3735C38.6173 22.3735 39.4575 21.9348 40.0038 21.0575C40.5583 20.1801 40.848 18.7978 40.8729 16.9106V13.1486ZM57.448 16.2898C57.448 18.9799 56.9886 20.9788 56.0698 22.2866C55.151 23.5944 53.7149 24.2483 51.7615 24.2483C49.8329 24.2483 48.4051 23.611 47.4781 22.3363C46.551 21.0533 46.071 19.1413 46.0378 16.6002V13.5335C46.0378 10.8765 46.4972 8.90239 47.416 7.61115C48.3348 6.3199 49.775 5.67428 51.7367 5.67428C53.6818 5.67428 55.1138 6.29921 56.0326 7.54907C56.9513 8.79065 57.4231 10.711 57.448 13.31V16.2898ZM55.151 13.1486C55.151 11.2035 54.8779 9.78805 54.3316 8.90239C53.7853 8.00845 52.9203 7.56148 51.7367 7.56148C50.5613 7.56148 49.7046 8.00431 49.1666 8.88997C48.6286 9.77563 48.3513 11.1372 48.3348 12.9748V16.6498C48.3348 18.6033 48.6162 20.0476 49.179 20.983C49.7502 21.91 50.611 22.3735 51.7615 22.3735C52.8955 22.3735 53.7356 21.9348 54.2819 21.0575C54.8365 20.1801 55.1262 18.7978 55.151 16.9106V13.1486Z" fill="#A9A8A8"/>
</svg>
