<svg width="59" height="155" viewBox="0 0 59 155" fill="none" xmlns="http://www.w3.org/2000/svg">
<circle cx="30" cy="44" r="15.5" stroke="#C4C4C4"/>
<path d="M30.5 64L32.8868 59H27.1132L29.5 64H30.5ZM29.5 67.8831V71.8312H30.5V67.8831H29.5ZM29.5 78.7403V82.6883H30.5V78.7403H29.5ZM29.5 89.5974V93.5455H30.5L30.5 89.5974H29.5ZM29.5 100.455V104.403H30.5V100.455H29.5ZM29.5 111.312V115.26H30.5V111.312H29.5ZM29.5 122.169V126.117H30.5V122.169H29.5ZM29.5 133.026V135H30.5V133.026H29.5Z" fill="#C4C4C4"/>
<circle cx="29.5" cy="141.5" r="8" stroke="black" stroke-opacity="0.6"/>
<line x1="29.5" y1="128" x2="29.5" y2="136" stroke="black" stroke-opacity="0.6"/>
<line x1="29.5" y1="147" x2="29.5" y2="155" stroke="black" stroke-opacity="0.6"/>
<line x1="43" y1="141.5" x2="16" y2="141.5" stroke="black" stroke-opacity="0.6"/>
<circle cx="29.5" cy="141.5" r="5.5" fill="#070000" fill-opacity="0.6"/>
<line x1="29.5" y1="136" x2="29.5" y2="147" stroke="white"/>
<line x1="35" y1="141.5" x2="24" y2="141.5" stroke="white"/>
<path d="M6.80392 15.5945L4.59391 17.8914V24H2.21007V5.9226H4.59391V14.862L12.6269 5.9226H15.5074L8.39314 13.906L16.0661 24H13.2105L6.80392 15.5945ZM25.1048 24H22.7955V8.69132L18.1644 10.3923V8.30643L24.7447 5.83569H25.1048V24ZM43.1698 16.2898C43.1698 18.9799 42.7104 20.9788 41.7916 22.2866C40.8729 23.5944 39.4368 24.2483 37.4834 24.2483C35.5548 24.2483 34.127 23.611 33.1999 22.3363C32.2729 21.0533 31.7928 19.1413 31.7597 16.6002V13.5335C31.7597 10.8765 32.2191 8.90239 33.1378 7.61115C34.0566 6.3199 35.4968 5.67428 37.4585 5.67428C39.4037 5.67428 40.8356 6.29921 41.7544 7.54907C42.6732 8.79065 43.145 10.711 43.1698 13.31V16.2898ZM40.8729 13.1486C40.8729 11.2035 40.5997 9.78805 40.0534 8.90239C39.5071 8.00845 38.6422 7.56148 37.4585 7.56148C36.2832 7.56148 35.4265 8.00431 34.8885 8.88997C34.3504 9.77563 34.0732 11.1372 34.0566 12.9748V16.6498C34.0566 18.6033 34.338 20.0476 34.9009 20.983C35.472 21.91 36.3328 22.3735 37.4834 22.3735C38.6173 22.3735 39.4575 21.9348 40.0038 21.0575C40.5583 20.1801 40.848 18.7978 40.8729 16.9106V13.1486ZM53.6611 24H51.3518V8.69132L46.7207 10.3923V8.30643L53.3011 5.83569H53.6611V24Z" fill="#A9A8A8"/>
</svg>
