<svg width="59" height="155" viewBox="0 0 59 155" fill="none" xmlns="http://www.w3.org/2000/svg">
<circle cx="30" cy="44" r="15.5" stroke="#C4C4C4"/>
<path d="M30.5 64L32.8868 59H27.1132L29.5 64H30.5ZM29.5 67.8831V71.8312H30.5V67.8831H29.5ZM29.5 78.7403V82.6883H30.5V78.7403H29.5ZM29.5 89.5974V93.5455H30.5L30.5 89.5974H29.5ZM29.5 100.455V104.403H30.5V100.455H29.5ZM29.5 111.312V115.26H30.5V111.312H29.5ZM29.5 122.169V126.117H30.5V122.169H29.5ZM29.5 133.026V135H30.5V133.026H29.5Z" fill="#C4C4C4"/>
<circle cx="29.5" cy="141.5" r="8" stroke="black" stroke-opacity="0.6"/>
<line x1="29.5" y1="128" x2="29.5" y2="136" stroke="black" stroke-opacity="0.6"/>
<line x1="29.5" y1="147" x2="29.5" y2="155" stroke="black" stroke-opacity="0.6"/>
<line x1="43" y1="141.5" x2="16" y2="141.5" stroke="black" stroke-opacity="0.6"/>
<circle cx="29.5" cy="141.5" r="5.5" fill="#070000" fill-opacity="0.6"/>
<line x1="29.5" y1="136" x2="29.5" y2="147" stroke="white"/>
<line x1="35" y1="141.5" x2="24" y2="141.5" stroke="white"/>
<path d="M6.80392 15.5945L4.59391 17.8914V24H2.21007V5.9226H4.59391V14.862L12.6269 5.9226H15.5074L8.39314 13.906L16.0661 24H13.2105L6.80392 15.5945ZM25.1048 24H22.7955V8.69132L18.1644 10.3923V8.30643L24.7447 5.83569H25.1048V24ZM43.6788 24H31.8342V22.3487L38.0917 15.3959C39.0188 14.3446 39.6561 13.4921 40.0038 12.8382C40.3597 12.176 40.5376 11.4932 40.5376 10.7896C40.5376 9.84599 40.2521 9.07207 39.681 8.46784C39.1098 7.8636 38.3483 7.56148 37.3964 7.56148C36.2542 7.56148 35.3644 7.88843 34.7271 8.54233C34.098 9.18795 33.7834 10.0902 33.7834 11.249H31.4865C31.4865 9.58526 32.0204 8.24021 33.0882 7.21384C34.1642 6.18747 35.6003 5.67428 37.3964 5.67428C39.0767 5.67428 40.4052 6.11711 41.3819 7.00277C42.3586 7.88016 42.847 9.05138 42.847 10.5164C42.847 12.296 41.713 14.415 39.4451 16.8733L34.6029 22.1252H43.6788V24ZM49.4522 13.8439H51.178C52.2623 13.8273 53.1148 13.5418 53.7356 12.9872C54.3564 12.4326 54.6668 11.6835 54.6668 10.7399C54.6668 8.62096 53.6115 7.56148 51.5008 7.56148C50.5075 7.56148 49.7129 7.84705 49.117 8.41817C48.5293 8.98102 48.2354 9.73011 48.2354 10.6654H45.9385C45.9385 9.23348 46.46 8.0457 47.5029 7.1021C48.5541 6.15022 49.8867 5.67428 51.5008 5.67428C53.2059 5.67428 54.5427 6.12539 55.5111 7.0276C56.4795 7.92982 56.9637 9.18381 56.9637 10.7896C56.9637 11.5759 56.7072 12.3374 56.194 13.0741C55.6891 13.8108 54.9979 14.3612 54.1205 14.7254C55.1138 15.0399 55.8794 15.5614 56.4175 16.2898C56.9637 17.0182 57.2369 17.908 57.2369 18.9592C57.2369 20.5815 56.7072 21.8686 55.6477 22.8205C54.5882 23.7724 53.21 24.2483 51.5132 24.2483C49.8164 24.2483 48.4341 23.7889 47.3663 22.8702C46.3069 21.9514 45.7771 20.7388 45.7771 19.2323H48.0865C48.0865 20.1842 48.3968 20.9457 49.0176 21.5168C49.6384 22.088 50.4703 22.3735 51.5132 22.3735C52.6224 22.3735 53.4708 22.0838 54.0584 21.5044C54.6461 20.925 54.94 20.0932 54.94 19.0088C54.94 17.9576 54.6172 17.1506 53.9715 16.5878C53.3259 16.0249 52.3947 15.7352 51.178 15.7187H49.4522V13.8439Z" fill="#A9A8A8"/>
</svg>
