<svg width="59" height="155" viewBox="0 0 59 155" fill="none" xmlns="http://www.w3.org/2000/svg">
<circle cx="30" cy="44" r="15.5" stroke="#C4C4C4"/>
<path d="M30.5 64L32.8868 59H27.1132L29.5 64H30.5ZM29.5 67.8831V71.8312H30.5V67.8831H29.5ZM29.5 78.7403V82.6883H30.5V78.7403H29.5ZM29.5 89.5974V93.5455H30.5L30.5 89.5974H29.5ZM29.5 100.455V104.403H30.5V100.455H29.5ZM29.5 111.312V115.26H30.5V111.312H29.5ZM29.5 122.169V126.117H30.5V122.169H29.5ZM29.5 133.026V135H30.5V133.026H29.5Z" fill="#C4C4C4"/>
<circle cx="29.5" cy="141.5" r="8" stroke="black" stroke-opacity="0.6"/>
<line x1="29.5" y1="128" x2="29.5" y2="136" stroke="black" stroke-opacity="0.6"/>
<line x1="29.5" y1="147" x2="29.5" y2="155" stroke="black" stroke-opacity="0.6"/>
<line x1="43" y1="141.5" x2="16" y2="141.5" stroke="black" stroke-opacity="0.6"/>
<circle cx="29.5" cy="141.5" r="5.5" fill="#070000" fill-opacity="0.6"/>
<line x1="29.5" y1="136" x2="29.5" y2="147" stroke="white"/>
<line x1="35" y1="141.5" x2="24" y2="141.5" stroke="white"/>
<path d="M6.80392 15.5945L4.59391 17.8914V24H2.21007V5.9226H4.59391V14.862L12.6269 5.9226H15.5074L8.39314 13.906L16.0661 24H13.2105L6.80392 15.5945ZM25.1048 24H22.7955V8.69132L18.1644 10.3923V8.30643L24.7447 5.83569H25.1048V24ZM43.6788 24H31.8342V22.3487L38.0917 15.3959C39.0188 14.3446 39.6561 13.4921 40.0038 12.8382C40.3597 12.176 40.5376 11.4932 40.5376 10.7896C40.5376 9.84599 40.2521 9.07207 39.681 8.46784C39.1098 7.8636 38.3483 7.56148 37.3964 7.56148C36.2542 7.56148 35.3644 7.88843 34.7271 8.54233C34.098 9.18795 33.7834 10.0902 33.7834 11.249H31.4865C31.4865 9.58526 32.0204 8.24021 33.0882 7.21384C34.1642 6.18747 35.6003 5.67428 37.3964 5.67428C39.0767 5.67428 40.4052 6.11711 41.3819 7.00277C42.3586 7.88016 42.847 9.05138 42.847 10.5164C42.847 12.296 41.713 14.415 39.4451 16.8733L34.6029 22.1252H43.6788V24ZM55.8091 17.9287H58.3171V19.8035H55.8091V24H53.4997V19.8035H45.2681V18.4501L53.3632 5.9226H55.8091V17.9287ZM47.8754 17.9287H53.4997V9.06379L53.2266 9.56043L47.8754 17.9287Z" fill="#A9A8A8"/>
</svg>
