<svg width="59" height="155" viewBox="0 0 59 155" fill="none" xmlns="http://www.w3.org/2000/svg">
<circle cx="30" cy="44" r="15.5" stroke="#C4C4C4"/>
<path d="M30.5 64L32.8868 59H27.1132L29.5 64H30.5ZM29.5 67.8831V71.8312H30.5V67.8831H29.5ZM29.5 78.7403V82.6883H30.5V78.7403H29.5ZM29.5 89.5974V93.5455H30.5L30.5 89.5974H29.5ZM29.5 100.455V104.403H30.5V100.455H29.5ZM29.5 111.312V115.26H30.5V111.312H29.5ZM29.5 122.169V126.117H30.5V122.169H29.5ZM29.5 133.026V135H30.5V133.026H29.5Z" fill="#C4C4C4"/>
<circle cx="29.5" cy="141.5" r="8" stroke="black" stroke-opacity="0.6"/>
<line x1="29.5" y1="128" x2="29.5" y2="136" stroke="black" stroke-opacity="0.6"/>
<line x1="29.5" y1="147" x2="29.5" y2="155" stroke="black" stroke-opacity="0.6"/>
<line x1="43" y1="141.5" x2="16" y2="141.5" stroke="black" stroke-opacity="0.6"/>
<circle cx="29.5" cy="141.5" r="5.5" fill="#070000" fill-opacity="0.6"/>
<line x1="29.5" y1="136" x2="29.5" y2="147" stroke="white"/>
<line x1="35" y1="141.5" x2="24" y2="141.5" stroke="white"/>
<path d="M6.80392 15.5945L4.59391 17.8914V24H2.21007V5.9226H4.59391V14.862L12.6269 5.9226H15.5074L8.39314 13.906L16.0661 24H13.2105L6.80392 15.5945ZM25.1048 24H22.7955V8.69132L18.1644 10.3923V8.30643L24.7447 5.83569H25.1048V24ZM43.6788 24H31.8342V22.3487L38.0917 15.3959C39.0188 14.3446 39.6561 13.4921 40.0038 12.8382C40.3597 12.176 40.5376 11.4932 40.5376 10.7896C40.5376 9.84599 40.2521 9.07207 39.681 8.46784C39.1098 7.8636 38.3483 7.56148 37.3964 7.56148C36.2542 7.56148 35.3644 7.88843 34.7271 8.54233C34.098 9.18795 33.7834 10.0902 33.7834 11.249H31.4865C31.4865 9.58526 32.0204 8.24021 33.0882 7.21384C34.1642 6.18747 35.6003 5.67428 37.3964 5.67428C39.0767 5.67428 40.4052 6.11711 41.3819 7.00277C42.3586 7.88016 42.847 9.05138 42.847 10.5164C42.847 12.296 41.713 14.415 39.4451 16.8733L34.6029 22.1252H43.6788V24ZM55.1262 5.91018V7.85946H54.7041C52.9162 7.89257 51.4925 8.42231 50.433 9.44868C49.3736 10.4751 48.761 11.9194 48.5955 13.7818C49.5474 12.6892 50.8469 12.1429 52.4941 12.1429C54.0667 12.1429 55.3207 12.6975 56.256 13.8066C57.1996 14.9158 57.6714 16.3477 57.6714 18.1025C57.6714 19.9649 57.1624 21.4548 56.1443 22.5722C55.1345 23.6896 53.777 24.2483 52.0719 24.2483C50.342 24.2483 48.939 23.5861 47.863 22.2618C46.7869 20.9292 46.2489 19.2158 46.2489 17.1216V16.2401C46.2489 12.9127 46.9566 10.3716 48.372 8.61683C49.7957 6.85378 51.9105 5.95157 54.7165 5.91018H55.1262ZM52.1092 14.0549C51.3228 14.0549 50.5986 14.2908 49.9364 14.7626C49.2742 15.2344 48.8148 15.8263 48.5583 16.5381V17.3824C48.5583 18.8723 48.8935 20.0725 49.5639 20.983C50.2344 21.8935 51.0704 22.3487 52.0719 22.3487C53.1066 22.3487 53.9177 21.9679 54.5054 21.2064C55.1014 20.4449 55.3994 19.4475 55.3994 18.2142C55.3994 16.9727 55.0972 15.9711 54.493 15.2096C53.897 14.4398 53.1024 14.0549 52.1092 14.0549Z" fill="#A9A8A8"/>
</svg>
