<svg width="59" height="155" viewBox="0 0 59 155" fill="none" xmlns="http://www.w3.org/2000/svg">
<circle cx="30" cy="44" r="15.5" stroke="#C4C4C4"/>
<path d="M30.5 64L32.8868 59H27.1132L29.5 64H30.5ZM29.5 67.8831V71.8312H30.5V67.8831H29.5ZM29.5 78.7403V82.6883H30.5V78.7403H29.5ZM29.5 89.5974V93.5455H30.5L30.5 89.5974H29.5ZM29.5 100.455V104.403H30.5V100.455H29.5ZM29.5 111.312V115.26H30.5V111.312H29.5ZM29.5 122.169V126.117H30.5V122.169H29.5ZM29.5 133.026V135H30.5V133.026H29.5Z" fill="#C4C4C4"/>
<circle cx="29.5" cy="141.5" r="8" stroke="black" stroke-opacity="0.6"/>
<line x1="29.5" y1="128" x2="29.5" y2="136" stroke="black" stroke-opacity="0.6"/>
<line x1="29.5" y1="147" x2="29.5" y2="155" stroke="black" stroke-opacity="0.6"/>
<line x1="43" y1="141.5" x2="16" y2="141.5" stroke="black" stroke-opacity="0.6"/>
<circle cx="29.5" cy="141.5" r="5.5" fill="#070000" fill-opacity="0.6"/>
<line x1="29.5" y1="136" x2="29.5" y2="147" stroke="white"/>
<line x1="35" y1="141.5" x2="24" y2="141.5" stroke="white"/>
<path d="M6.80392 15.5945L4.59391 17.8914V24H2.21007V5.9226H4.59391V14.862L12.6269 5.9226H15.5074L8.39314 13.906L16.0661 24H13.2105L6.80392 15.5945ZM25.1048 24H22.7955V8.69132L18.1644 10.3923V8.30643L24.7447 5.83569H25.1048V24ZM35.174 13.8439H36.8998C37.9841 13.8273 38.8367 13.5418 39.4575 12.9872C40.0783 12.4326 40.3887 11.6835 40.3887 10.7399C40.3887 8.62096 39.3333 7.56148 37.2226 7.56148C36.2294 7.56148 35.4348 7.84705 34.8388 8.41817C34.2511 8.98102 33.9573 9.73011 33.9573 10.6654H31.6603C31.6603 9.23348 32.1818 8.0457 33.2247 7.1021C34.2759 6.15022 35.6086 5.67428 37.2226 5.67428C38.9277 5.67428 40.2645 6.12539 41.2329 7.0276C42.2014 7.92982 42.6856 9.18381 42.6856 10.7896C42.6856 11.5759 42.429 12.3374 41.9158 13.0741C41.4109 13.8108 40.7197 14.3612 39.8424 14.7254C40.8356 15.0399 41.6013 15.5614 42.1393 16.2898C42.6856 17.0182 42.9587 17.908 42.9587 18.9592C42.9587 20.5815 42.429 21.8686 41.3695 22.8205C40.31 23.7724 38.9319 24.2483 37.235 24.2483C35.5382 24.2483 34.1559 23.7889 33.0882 22.8702C32.0287 21.9514 31.4989 20.7388 31.4989 19.2323H33.8083C33.8083 20.1842 34.1187 20.9457 34.7395 21.5168C35.3603 22.088 36.1921 22.3735 37.235 22.3735C38.3442 22.3735 39.1926 22.0838 39.7803 21.5044C40.368 20.925 40.6618 20.0932 40.6618 19.0088C40.6618 17.9576 40.339 17.1506 39.6934 16.5878C39.0477 16.0249 38.1166 15.7352 36.8998 15.7187H35.174V13.8439ZM57.957 24H46.1123V22.3487L52.3699 15.3959C53.2969 14.3446 53.9343 13.4921 54.2819 12.8382C54.6379 12.176 54.8158 11.4932 54.8158 10.7896C54.8158 9.84599 54.5303 9.07207 53.9591 8.46784C53.388 7.8636 52.6265 7.56148 51.6746 7.56148C50.5324 7.56148 49.6426 7.88843 49.0052 8.54233C48.3762 9.18795 48.0616 10.0902 48.0616 11.249H45.7647C45.7647 9.58526 46.2986 8.24021 47.3663 7.21384C48.4424 6.18747 49.8785 5.67428 51.6746 5.67428C53.3549 5.67428 54.6834 6.11711 55.6601 7.00277C56.6368 7.88016 57.1252 9.05138 57.1252 10.5164C57.1252 12.296 55.9912 14.415 53.7232 16.8733L48.8811 22.1252H57.957V24Z" fill="#A9A8A8"/>
</svg>
