<svg width="59" height="155" viewBox="0 0 59 155" fill="none" xmlns="http://www.w3.org/2000/svg">
<circle cx="30" cy="44" r="15.5" stroke="#C4C4C4"/>
<path d="M30.5 64L32.8868 59H27.1132L29.5 64H30.5ZM29.5 67.8831V71.8312H30.5V67.8831H29.5ZM29.5 78.7403V82.6883H30.5V78.7403H29.5ZM29.5 89.5974V93.5455H30.5L30.5 89.5974H29.5ZM29.5 100.455V104.403H30.5V100.455H29.5ZM29.5 111.312V115.26H30.5V111.312H29.5ZM29.5 122.169V126.117H30.5V122.169H29.5ZM29.5 133.026V135H30.5V133.026H29.5Z" fill="#C4C4C4"/>
<circle cx="29.5" cy="141.5" r="8" stroke="black" stroke-opacity="0.6"/>
<line x1="29.5" y1="128" x2="29.5" y2="136" stroke="black" stroke-opacity="0.6"/>
<line x1="29.5" y1="147" x2="29.5" y2="155" stroke="black" stroke-opacity="0.6"/>
<line x1="43" y1="141.5" x2="16" y2="141.5" stroke="black" stroke-opacity="0.6"/>
<circle cx="29.5" cy="141.5" r="5.5" fill="#070000" fill-opacity="0.6"/>
<line x1="29.5" y1="136" x2="29.5" y2="147" stroke="white"/>
<line x1="35" y1="141.5" x2="24" y2="141.5" stroke="white"/>
<path d="M6.80392 15.5945L4.59391 17.8914V24H2.21007V5.9226H4.59391V14.862L12.6269 5.9226H15.5074L8.39314 13.906L16.0661 24H13.2105L6.80392 15.5945ZM25.1048 24H22.7955V8.69132L18.1644 10.3923V8.30643L24.7447 5.83569H25.1048V24ZM35.174 13.8439H36.8998C37.9841 13.8273 38.8367 13.5418 39.4575 12.9872C40.0783 12.4326 40.3887 11.6835 40.3887 10.7399C40.3887 8.62096 39.3333 7.56148 37.2226 7.56148C36.2294 7.56148 35.4348 7.84705 34.8388 8.41817C34.2511 8.98102 33.9573 9.73011 33.9573 10.6654H31.6603C31.6603 9.23348 32.1818 8.0457 33.2247 7.1021C34.2759 6.15022 35.6086 5.67428 37.2226 5.67428C38.9277 5.67428 40.2645 6.12539 41.2329 7.0276C42.2014 7.92982 42.6856 9.18381 42.6856 10.7896C42.6856 11.5759 42.429 12.3374 41.9158 13.0741C41.4109 13.8108 40.7197 14.3612 39.8424 14.7254C40.8356 15.0399 41.6013 15.5614 42.1393 16.2898C42.6856 17.0182 42.9587 17.908 42.9587 18.9592C42.9587 20.5815 42.429 21.8686 41.3695 22.8205C40.31 23.7724 38.9319 24.2483 37.235 24.2483C35.5382 24.2483 34.1559 23.7889 33.0882 22.8702C32.0287 21.9514 31.4989 20.7388 31.4989 19.2323H33.8083C33.8083 20.1842 34.1187 20.9457 34.7395 21.5168C35.3603 22.088 36.1921 22.3735 37.235 22.3735C38.3442 22.3735 39.1926 22.0838 39.7803 21.5044C40.368 20.925 40.6618 20.0932 40.6618 19.0088C40.6618 17.9576 40.339 17.1506 39.6934 16.5878C39.0477 16.0249 38.1166 15.7352 36.8998 15.7187H35.174V13.8439ZM47.1677 14.9365L48.0865 5.9226H57.3486V8.0457H50.0357L49.4894 12.9748C50.3751 12.4533 51.3808 12.1926 52.5065 12.1926C54.1536 12.1926 55.4614 12.7389 56.4299 13.8315C57.3983 14.9158 57.8825 16.385 57.8825 18.2391C57.8825 20.1014 57.3776 21.5706 56.3678 22.6467C55.3662 23.7144 53.9633 24.2483 52.1588 24.2483C50.5613 24.2483 49.2577 23.8055 48.2479 22.9198C47.238 22.0342 46.6628 20.8091 46.5221 19.2447H48.6948C48.8355 20.2794 49.2039 21.0616 49.7998 21.5913C50.3958 22.1128 51.1821 22.3735 52.1588 22.3735C53.2266 22.3735 54.0626 22.0093 54.6668 21.2809C55.2793 20.5525 55.5856 19.5469 55.5856 18.2639C55.5856 17.0554 55.2545 16.087 54.5923 15.3586C53.9384 14.6219 53.0652 14.2536 51.9726 14.2536C50.9711 14.2536 50.1847 14.4729 49.6136 14.9116L49.0052 15.4083L47.1677 14.9365Z" fill="#A9A8A8"/>
</svg>
