<svg width="59" height="155" viewBox="0 0 59 155" fill="none" xmlns="http://www.w3.org/2000/svg">
<circle cx="30" cy="44" r="15.5" stroke="#C4C4C4"/>
<path d="M30.5 64L32.8868 59H27.1132L29.5 64H30.5ZM29.5 67.8831V71.8312H30.5V67.8831H29.5ZM29.5 78.7403V82.6883H30.5V78.7403H29.5ZM29.5 89.5974V93.5455H30.5L30.5 89.5974H29.5ZM29.5 100.455V104.403H30.5V100.455H29.5ZM29.5 111.312V115.26H30.5V111.312H29.5ZM29.5 122.169V126.117H30.5V122.169H29.5ZM29.5 133.026V135H30.5V133.026H29.5Z" fill="#C4C4C4"/>
<circle cx="29.5" cy="141.5" r="8" stroke="black" stroke-opacity="0.6"/>
<line x1="29.5" y1="128" x2="29.5" y2="136" stroke="black" stroke-opacity="0.6"/>
<line x1="29.5" y1="147" x2="29.5" y2="155" stroke="black" stroke-opacity="0.6"/>
<line x1="43" y1="141.5" x2="16" y2="141.5" stroke="black" stroke-opacity="0.6"/>
<circle cx="29.5" cy="141.5" r="5.5" fill="#070000" fill-opacity="0.6"/>
<line x1="29.5" y1="136" x2="29.5" y2="147" stroke="white"/>
<line x1="35" y1="141.5" x2="24" y2="141.5" stroke="white"/>
<path d="M6.80392 15.5945L4.59391 17.8914V24H2.21007V5.9226H4.59391V14.862L12.6269 5.9226H15.5074L8.39314 13.906L16.0661 24H13.2105L6.80392 15.5945ZM25.1048 24H22.7955V8.69132L18.1644 10.3923V8.30643L24.7447 5.83569H25.1048V24ZM35.174 13.8439H36.8998C37.9841 13.8273 38.8367 13.5418 39.4575 12.9872C40.0783 12.4326 40.3887 11.6835 40.3887 10.7399C40.3887 8.62096 39.3333 7.56148 37.2226 7.56148C36.2294 7.56148 35.4348 7.84705 34.8388 8.41817C34.2511 8.98102 33.9573 9.73011 33.9573 10.6654H31.6603C31.6603 9.23348 32.1818 8.0457 33.2247 7.1021C34.2759 6.15022 35.6086 5.67428 37.2226 5.67428C38.9277 5.67428 40.2645 6.12539 41.2329 7.0276C42.2014 7.92982 42.6856 9.18381 42.6856 10.7896C42.6856 11.5759 42.429 12.3374 41.9158 13.0741C41.4109 13.8108 40.7197 14.3612 39.8424 14.7254C40.8356 15.0399 41.6013 15.5614 42.1393 16.2898C42.6856 17.0182 42.9587 17.908 42.9587 18.9592C42.9587 20.5815 42.429 21.8686 41.3695 22.8205C40.31 23.7724 38.9319 24.2483 37.235 24.2483C35.5382 24.2483 34.1559 23.7889 33.0882 22.8702C32.0287 21.9514 31.4989 20.7388 31.4989 19.2323H33.8083C33.8083 20.1842 34.1187 20.9457 34.7395 21.5168C35.3603 22.088 36.1921 22.3735 37.235 22.3735C38.3442 22.3735 39.1926 22.0838 39.7803 21.5044C40.368 20.925 40.6618 20.0932 40.6618 19.0088C40.6618 17.9576 40.339 17.1506 39.6934 16.5878C39.0477 16.0249 38.1166 15.7352 36.8998 15.7187H35.174V13.8439ZM55.1262 5.91018V7.85946H54.7041C52.9162 7.89257 51.4925 8.42231 50.433 9.44868C49.3736 10.4751 48.761 11.9194 48.5955 13.7818C49.5474 12.6892 50.8469 12.1429 52.4941 12.1429C54.0667 12.1429 55.3207 12.6975 56.256 13.8066C57.1996 14.9158 57.6714 16.3477 57.6714 18.1025C57.6714 19.9649 57.1624 21.4548 56.1443 22.5722C55.1345 23.6896 53.777 24.2483 52.0719 24.2483C50.342 24.2483 48.939 23.5861 47.863 22.2618C46.7869 20.9292 46.2489 19.2158 46.2489 17.1216V16.2401C46.2489 12.9127 46.9566 10.3716 48.372 8.61683C49.7957 6.85378 51.9105 5.95157 54.7165 5.91018H55.1262ZM52.1092 14.0549C51.3228 14.0549 50.5986 14.2908 49.9364 14.7626C49.2742 15.2344 48.8148 15.8263 48.5583 16.5381V17.3824C48.5583 18.8723 48.8935 20.0725 49.5639 20.983C50.2344 21.8935 51.0704 22.3487 52.0719 22.3487C53.1066 22.3487 53.9177 21.9679 54.5054 21.2064C55.1014 20.4449 55.3994 19.4475 55.3994 18.2142C55.3994 16.9727 55.0972 15.9711 54.493 15.2096C53.897 14.4398 53.1024 14.0549 52.1092 14.0549Z" fill="#A9A8A8"/>
</svg>
