<svg width="59" height="155" viewBox="0 0 59 155" fill="none" xmlns="http://www.w3.org/2000/svg">
<circle cx="30" cy="44" r="15.5" stroke="#C4C4C4"/>
<path d="M30.5 64L32.8868 59H27.1132L29.5 64H30.5ZM29.5 67.8831V71.8312H30.5V67.8831H29.5ZM29.5 78.7403V82.6883H30.5V78.7403H29.5ZM29.5 89.5974V93.5455H30.5L30.5 89.5974H29.5ZM29.5 100.455V104.403H30.5V100.455H29.5ZM29.5 111.312V115.26H30.5V111.312H29.5ZM29.5 122.169V126.117H30.5V122.169H29.5ZM29.5 133.026V135H30.5V133.026H29.5Z" fill="#C4C4C4"/>
<circle cx="29.5" cy="141.5" r="8" stroke="black" stroke-opacity="0.6"/>
<line x1="29.5" y1="128" x2="29.5" y2="136" stroke="black" stroke-opacity="0.6"/>
<line x1="29.5" y1="147" x2="29.5" y2="155" stroke="black" stroke-opacity="0.6"/>
<line x1="43" y1="141.5" x2="16" y2="141.5" stroke="black" stroke-opacity="0.6"/>
<circle cx="29.5" cy="141.5" r="5.5" fill="#070000" fill-opacity="0.6"/>
<line x1="29.5" y1="136" x2="29.5" y2="147" stroke="white"/>
<line x1="35" y1="141.5" x2="24" y2="141.5" stroke="white"/>
<path d="M6.80392 15.5945L4.59391 17.8914V24H2.21007V5.9226H4.59391V14.862L12.6269 5.9226H15.5074L8.39314 13.906L16.0661 24H13.2105L6.80392 15.5945ZM25.1048 24H22.7955V8.69132L18.1644 10.3923V8.30643L24.7447 5.83569H25.1048V24ZM35.174 13.8439H36.8998C37.9841 13.8273 38.8367 13.5418 39.4575 12.9872C40.0783 12.4326 40.3887 11.6835 40.3887 10.7399C40.3887 8.62096 39.3333 7.56148 37.2226 7.56148C36.2294 7.56148 35.4348 7.84705 34.8388 8.41817C34.2511 8.98102 33.9573 9.73011 33.9573 10.6654H31.6603C31.6603 9.23348 32.1818 8.0457 33.2247 7.1021C34.2759 6.15022 35.6086 5.67428 37.2226 5.67428C38.9277 5.67428 40.2645 6.12539 41.2329 7.0276C42.2014 7.92982 42.6856 9.18381 42.6856 10.7896C42.6856 11.5759 42.429 12.3374 41.9158 13.0741C41.4109 13.8108 40.7197 14.3612 39.8424 14.7254C40.8356 15.0399 41.6013 15.5614 42.1393 16.2898C42.6856 17.0182 42.9587 17.908 42.9587 18.9592C42.9587 20.5815 42.429 21.8686 41.3695 22.8205C40.31 23.7724 38.9319 24.2483 37.235 24.2483C35.5382 24.2483 34.1559 23.7889 33.0882 22.8702C32.0287 21.9514 31.4989 20.7388 31.4989 19.2323H33.8083C33.8083 20.1842 34.1187 20.9457 34.7395 21.5168C35.3603 22.088 36.1921 22.3735 37.235 22.3735C38.3442 22.3735 39.1926 22.0838 39.7803 21.5044C40.368 20.925 40.6618 20.0932 40.6618 19.0088C40.6618 17.9576 40.339 17.1506 39.6934 16.5878C39.0477 16.0249 38.1166 15.7352 36.8998 15.7187H35.174V13.8439ZM54.9151 16.0539C54.4351 16.625 53.8598 17.0844 53.1893 17.432C52.5272 17.7797 51.7988 17.9535 51.0042 17.9535C49.9612 17.9535 49.0507 17.6969 48.2727 17.1837C47.5029 16.6705 46.907 15.9504 46.4848 15.0234C46.0627 14.0881 45.8516 13.0575 45.8516 11.9318C45.8516 10.7234 46.0792 9.63492 46.5345 8.66649C46.998 7.69806 47.6519 6.95725 48.4962 6.44406C49.3404 5.93087 50.3254 5.67428 51.4511 5.67428C53.239 5.67428 54.6461 6.34473 55.6725 7.68564C56.7072 9.01827 57.2245 10.8393 57.2245 13.1486V13.819C57.2245 17.3369 56.5292 19.9069 55.1386 21.5293C53.7481 23.1433 51.6498 23.971 48.8438 24.0124H48.3968V22.0756H48.8811C50.7765 22.0424 52.2333 21.5499 53.2514 20.5981C54.2695 19.6379 54.8241 18.1232 54.9151 16.0539ZM51.3766 16.0539C52.1464 16.0539 52.8541 15.818 53.4997 15.3462C54.1536 14.8744 54.6296 14.2908 54.9276 13.5956V12.6768C54.9276 11.1703 54.6006 9.94532 53.9467 9.00172C53.2928 8.05811 52.4651 7.58631 51.4635 7.58631C50.4537 7.58631 49.6426 7.97534 49.0301 8.7534C48.4175 9.52318 48.1113 10.5413 48.1113 11.8077C48.1113 13.041 48.4051 14.0591 48.9928 14.862C49.5888 15.6566 50.3834 16.0539 51.3766 16.0539Z" fill="#A9A8A8"/>
</svg>
