<svg width="59" height="155" viewBox="0 0 59 155" fill="none" xmlns="http://www.w3.org/2000/svg">
<circle cx="30" cy="44" r="15.5" stroke="#C4C4C4"/>
<path d="M30.5 64L32.8868 59H27.1132L29.5 64H30.5ZM29.5 67.8831V71.8312H30.5V67.8831H29.5ZM29.5 78.7403V82.6883H30.5V78.7403H29.5ZM29.5 89.5974V93.5455H30.5L30.5 89.5974H29.5ZM29.5 100.455V104.403H30.5V100.455H29.5ZM29.5 111.312V115.26H30.5V111.312H29.5ZM29.5 122.169V126.117H30.5V122.169H29.5ZM29.5 133.026V135H30.5V133.026H29.5Z" fill="#C4C4C4"/>
<circle cx="29.5" cy="141.5" r="8" stroke="black" stroke-opacity="0.6"/>
<line x1="29.5" y1="128" x2="29.5" y2="136" stroke="black" stroke-opacity="0.6"/>
<line x1="29.5" y1="147" x2="29.5" y2="155" stroke="black" stroke-opacity="0.6"/>
<line x1="43" y1="141.5" x2="16" y2="141.5" stroke="black" stroke-opacity="0.6"/>
<circle cx="29.5" cy="141.5" r="5.5" fill="#070000" fill-opacity="0.6"/>
<line x1="29.5" y1="136" x2="29.5" y2="147" stroke="white"/>
<line x1="35" y1="141.5" x2="24" y2="141.5" stroke="white"/>
<path d="M6.80392 15.5945L4.59391 17.8914V24H2.21007V5.9226H4.59391V14.862L12.6269 5.9226H15.5074L8.39314 13.906L16.0661 24H13.2105L6.80392 15.5945ZM25.1048 24H22.7955V8.69132L18.1644 10.3923V8.30643L24.7447 5.83569H25.1048V24ZM41.5309 17.9287H44.0389V19.8035H41.5309V24H39.2216V19.8035H30.9899V18.4501L39.085 5.9226H41.5309V17.9287ZM33.5972 17.9287H39.2216V9.06379L38.9484 9.56043L33.5972 17.9287ZM57.957 24H46.1123V22.3487L52.3699 15.3959C53.2969 14.3446 53.9343 13.4921 54.2819 12.8382C54.6379 12.176 54.8158 11.4932 54.8158 10.7896C54.8158 9.84599 54.5303 9.07207 53.9591 8.46784C53.388 7.8636 52.6265 7.56148 51.6746 7.56148C50.5324 7.56148 49.6426 7.88843 49.0052 8.54233C48.3762 9.18795 48.0616 10.0902 48.0616 11.249H45.7647C45.7647 9.58526 46.2986 8.24021 47.3663 7.21384C48.4424 6.18747 49.8785 5.67428 51.6746 5.67428C53.3549 5.67428 54.6834 6.11711 55.6601 7.00277C56.6368 7.88016 57.1252 9.05138 57.1252 10.5164C57.1252 12.296 55.9912 14.415 53.7232 16.8733L48.8811 22.1252H57.957V24Z" fill="#A9A8A8"/>
</svg>
