<svg width="59" height="156" viewBox="0 0 59 156" fill="none" xmlns="http://www.w3.org/2000/svg">
<circle cx="30" cy="45" r="15.5" stroke="#C4C4C4"/>
<path d="M30.5 65L32.8868 60H27.1132L29.5 65H30.5ZM29.5 68.8831V72.8312H30.5V68.8831H29.5ZM29.5 79.7403V83.6883H30.5V79.7403H29.5ZM29.5 90.5974V94.5455H30.5L30.5 90.5974H29.5ZM29.5 101.455V105.403H30.5V101.455H29.5ZM29.5 112.312V116.26H30.5V112.312H29.5ZM29.5 123.169V127.117H30.5V123.169H29.5ZM29.5 134.026V136H30.5V134.026H29.5Z" fill="#C4C4C4"/>
<circle cx="29.5" cy="142.5" r="8" stroke="black" stroke-opacity="0.6"/>
<line x1="29.5" y1="129" x2="29.5" y2="137" stroke="black" stroke-opacity="0.6"/>
<line x1="29.5" y1="148" x2="29.5" y2="156" stroke="black" stroke-opacity="0.6"/>
<line x1="43" y1="142.5" x2="16" y2="142.5" stroke="black" stroke-opacity="0.6"/>
<circle cx="29.5" cy="142.5" r="5.5" fill="#070000" fill-opacity="0.6"/>
<line x1="29.5" y1="137" x2="29.5" y2="148" stroke="white"/>
<line x1="35" y1="142.5" x2="24" y2="142.5" stroke="white"/>
<path d="M6.80392 15.5945L4.59391 17.8914V24H2.21007V5.9226H4.59391V14.862L12.6269 5.9226H15.5074L8.39314 13.906L16.0661 24H13.2105L6.80392 15.5945ZM25.1048 24H22.7955V8.69132L18.1644 10.3923V8.30643L24.7447 5.83569H25.1048V24ZM41.5309 17.9287H44.0389V19.8035H41.5309V24H39.2216V19.8035H30.9899V18.4501L39.085 5.9226H41.5309V17.9287ZM33.5972 17.9287H39.2216V9.06379L38.9484 9.56043L33.5972 17.9287ZM57.7832 7.21384L50.2965 24H47.8878L55.3497 7.8098H45.566V5.9226H57.7832V7.21384Z" fill="#A9A8A8"/>
</svg>
