<svg width="59" height="156" viewBox="0 0 59 156" fill="none" xmlns="http://www.w3.org/2000/svg">
<circle cx="30" cy="45" r="15.5" stroke="#C4C4C4"/>
<path d="M30.5 65L32.8868 60H27.1132L29.5 65H30.5ZM29.5 68.8831V72.8312H30.5V68.8831H29.5ZM29.5 79.7403V83.6883H30.5V79.7403H29.5ZM29.5 90.5974V94.5455H30.5L30.5 90.5974H29.5ZM29.5 101.455V105.403H30.5V101.455H29.5ZM29.5 112.312V116.26H30.5V112.312H29.5ZM29.5 123.169V127.117H30.5V123.169H29.5ZM29.5 134.026V136H30.5V134.026H29.5Z" fill="#C4C4C4"/>
<circle cx="29.5" cy="142.5" r="8" stroke="black" stroke-opacity="0.6"/>
<line x1="29.5" y1="129" x2="29.5" y2="137" stroke="black" stroke-opacity="0.6"/>
<line x1="29.5" y1="148" x2="29.5" y2="156" stroke="black" stroke-opacity="0.6"/>
<line x1="43" y1="142.5" x2="16" y2="142.5" stroke="black" stroke-opacity="0.6"/>
<circle cx="29.5" cy="142.5" r="5.5" fill="#070000" fill-opacity="0.6"/>
<line x1="29.5" y1="137" x2="29.5" y2="148" stroke="white"/>
<line x1="35" y1="142.5" x2="24" y2="142.5" stroke="white"/>
<path d="M6.80392 15.5945L4.59391 17.8914V24H2.21007V5.9226H4.59391V14.862L12.6269 5.9226H15.5074L8.39314 13.906L16.0661 24H13.2105L6.80392 15.5945ZM25.1048 24H22.7955V8.69132L18.1644 10.3923V8.30643L24.7447 5.83569H25.1048V24ZM41.5309 17.9287H44.0389V19.8035H41.5309V24H39.2216V19.8035H30.9899V18.4501L39.085 5.9226H41.5309V17.9287ZM33.5972 17.9287H39.2216V9.06379L38.9484 9.56043L33.5972 17.9287ZM54.9151 16.0539C54.4351 16.625 53.8598 17.0844 53.1893 17.432C52.5272 17.7797 51.7988 17.9535 51.0042 17.9535C49.9612 17.9535 49.0507 17.6969 48.2727 17.1837C47.5029 16.6705 46.907 15.9504 46.4848 15.0234C46.0627 14.0881 45.8516 13.0575 45.8516 11.9318C45.8516 10.7234 46.0792 9.63492 46.5345 8.66649C46.998 7.69806 47.6519 6.95725 48.4962 6.44406C49.3404 5.93087 50.3254 5.67428 51.4511 5.67428C53.239 5.67428 54.6461 6.34473 55.6725 7.68564C56.7072 9.01827 57.2245 10.8393 57.2245 13.1486V13.819C57.2245 17.3369 56.5292 19.9069 55.1386 21.5293C53.7481 23.1433 51.6498 23.971 48.8438 24.0124H48.3968V22.0756H48.8811C50.7765 22.0424 52.2333 21.5499 53.2514 20.5981C54.2695 19.6379 54.8241 18.1232 54.9151 16.0539ZM51.3766 16.0539C52.1464 16.0539 52.8541 15.818 53.4997 15.3462C54.1536 14.8744 54.6296 14.2908 54.9276 13.5956V12.6768C54.9276 11.1703 54.6006 9.94532 53.9467 9.00172C53.2928 8.05811 52.4651 7.58631 51.4635 7.58631C50.4537 7.58631 49.6426 7.97534 49.0301 8.7534C48.4175 9.52318 48.1113 10.5413 48.1113 11.8077C48.1113 13.041 48.4051 14.0591 48.9928 14.862C49.5888 15.6566 50.3834 16.0539 51.3766 16.0539Z" fill="#A9A8A8"/>
</svg>
