<svg width="59" height="156" viewBox="0 0 59 156" fill="none" xmlns="http://www.w3.org/2000/svg">
<circle cx="30" cy="45" r="15.5" stroke="#C4C4C4"/>
<path d="M30.5 65L32.8868 60H27.1132L29.5 65H30.5ZM29.5 68.8831V72.8312H30.5V68.8831H29.5ZM29.5 79.7403V83.6883H30.5V79.7403H29.5ZM29.5 90.5974V94.5455H30.5L30.5 90.5974H29.5ZM29.5 101.455V105.403H30.5V101.455H29.5ZM29.5 112.312V116.26H30.5V112.312H29.5ZM29.5 123.169V127.117H30.5V123.169H29.5ZM29.5 134.026V136H30.5V134.026H29.5Z" fill="#C4C4C4"/>
<circle cx="29.5" cy="142.5" r="8" stroke="black" stroke-opacity="0.6"/>
<line x1="29.5" y1="129" x2="29.5" y2="137" stroke="black" stroke-opacity="0.6"/>
<line x1="29.5" y1="148" x2="29.5" y2="156" stroke="black" stroke-opacity="0.6"/>
<line x1="43" y1="142.5" x2="16" y2="142.5" stroke="black" stroke-opacity="0.6"/>
<circle cx="29.5" cy="142.5" r="5.5" fill="#070000" fill-opacity="0.6"/>
<line x1="29.5" y1="137" x2="29.5" y2="148" stroke="white"/>
<line x1="35" y1="142.5" x2="24" y2="142.5" stroke="white"/>
<path d="M6.80392 15.5945L4.59391 17.8914V24H2.21007V5.9226H4.59391V14.862L12.6269 5.9226H15.5074L8.39314 13.906L16.0661 24H13.2105L6.80392 15.5945ZM25.1048 24H22.7955V8.69132L18.1644 10.3923V8.30643L24.7447 5.83569H25.1048V24ZM32.8895 14.9365L33.8083 5.9226H43.0705V8.0457H35.7576L35.2113 12.9748C36.0969 12.4533 37.1026 12.1926 38.2283 12.1926C39.8755 12.1926 41.1833 12.7389 42.1517 13.8315C43.1201 14.9158 43.6043 16.385 43.6043 18.2391C43.6043 20.1014 43.0994 21.5706 42.0896 22.6467C41.0881 23.7144 39.6851 24.2483 37.8807 24.2483C36.2832 24.2483 34.9795 23.8055 33.9697 22.9198C32.9599 22.0342 32.3846 20.8091 32.2439 19.2447H34.4167C34.5574 20.2794 34.9257 21.0616 35.5217 21.5913C36.1176 22.1128 36.904 22.3735 37.8807 22.3735C38.9484 22.3735 39.7844 22.0093 40.3887 21.2809C41.0012 20.5525 41.3074 19.5469 41.3074 18.2639C41.3074 17.0554 40.9763 16.087 40.3142 15.3586C39.6603 14.6219 38.787 14.2536 37.6944 14.2536C36.6929 14.2536 35.9066 14.4729 35.3354 14.9116L34.7271 15.4083L32.8895 14.9365ZM57.957 24H46.1123V22.3487L52.3699 15.3959C53.2969 14.3446 53.9343 13.4921 54.2819 12.8382C54.6379 12.176 54.8158 11.4932 54.8158 10.7896C54.8158 9.84599 54.5303 9.07207 53.9591 8.46784C53.388 7.8636 52.6265 7.56148 51.6746 7.56148C50.5324 7.56148 49.6426 7.88843 49.0052 8.54233C48.3762 9.18795 48.0616 10.0902 48.0616 11.249H45.7647C45.7647 9.58526 46.2986 8.24021 47.3663 7.21384C48.4424 6.18747 49.8785 5.67428 51.6746 5.67428C53.3549 5.67428 54.6834 6.11711 55.6601 7.00277C56.6368 7.88016 57.1252 9.05138 57.1252 10.5164C57.1252 12.296 55.9912 14.415 53.7232 16.8733L48.8811 22.1252H57.957V24Z" fill="#A9A8A8"/>
</svg>
