<svg width="59" height="156" viewBox="0 0 59 156" fill="none" xmlns="http://www.w3.org/2000/svg">
<circle cx="30" cy="45" r="15.5" stroke="#C4C4C4"/>
<path d="M30.5 65L32.8868 60H27.1132L29.5 65H30.5ZM29.5 68.8831V72.8312H30.5V68.8831H29.5ZM29.5 79.7403V83.6883H30.5V79.7403H29.5ZM29.5 90.5974V94.5455H30.5L30.5 90.5974H29.5ZM29.5 101.455V105.403H30.5V101.455H29.5ZM29.5 112.312V116.26H30.5V112.312H29.5ZM29.5 123.169V127.117H30.5V123.169H29.5ZM29.5 134.026V136H30.5V134.026H29.5Z" fill="#C4C4C4"/>
<circle cx="29.5" cy="142.5" r="8" stroke="black" stroke-opacity="0.6"/>
<line x1="29.5" y1="129" x2="29.5" y2="137" stroke="black" stroke-opacity="0.6"/>
<line x1="29.5" y1="148" x2="29.5" y2="156" stroke="black" stroke-opacity="0.6"/>
<line x1="43" y1="142.5" x2="16" y2="142.5" stroke="black" stroke-opacity="0.6"/>
<circle cx="29.5" cy="142.5" r="5.5" fill="#070000" fill-opacity="0.6"/>
<line x1="29.5" y1="137" x2="29.5" y2="148" stroke="white"/>
<line x1="35" y1="142.5" x2="24" y2="142.5" stroke="white"/>
<path d="M6.80392 15.5945L4.59391 17.8914V24H2.21007V5.9226H4.59391V14.862L12.6269 5.9226H15.5074L8.39314 13.906L16.0661 24H13.2105L6.80392 15.5945ZM25.1048 24H22.7955V8.69132L18.1644 10.3923V8.30643L24.7447 5.83569H25.1048V24ZM32.8895 14.9365L33.8083 5.9226H43.0705V8.0457H35.7576L35.2113 12.9748C36.0969 12.4533 37.1026 12.1926 38.2283 12.1926C39.8755 12.1926 41.1833 12.7389 42.1517 13.8315C43.1201 14.9158 43.6043 16.385 43.6043 18.2391C43.6043 20.1014 43.0994 21.5706 42.0896 22.6467C41.0881 23.7144 39.6851 24.2483 37.8807 24.2483C36.2832 24.2483 34.9795 23.8055 33.9697 22.9198C32.9599 22.0342 32.3846 20.8091 32.2439 19.2447H34.4167C34.5574 20.2794 34.9257 21.0616 35.5217 21.5913C36.1176 22.1128 36.904 22.3735 37.8807 22.3735C38.9484 22.3735 39.7844 22.0093 40.3887 21.2809C41.0012 20.5525 41.3074 19.5469 41.3074 18.2639C41.3074 17.0554 40.9763 16.087 40.3142 15.3586C39.6603 14.6219 38.787 14.2536 37.6944 14.2536C36.6929 14.2536 35.9066 14.4729 35.3354 14.9116L34.7271 15.4083L32.8895 14.9365ZM49.4522 13.8439H51.178C52.2623 13.8273 53.1148 13.5418 53.7356 12.9872C54.3564 12.4326 54.6668 11.6835 54.6668 10.7399C54.6668 8.62096 53.6115 7.56148 51.5008 7.56148C50.5075 7.56148 49.7129 7.84705 49.117 8.41817C48.5293 8.98102 48.2354 9.73011 48.2354 10.6654H45.9385C45.9385 9.23348 46.46 8.0457 47.5029 7.1021C48.5541 6.15022 49.8867 5.67428 51.5008 5.67428C53.2059 5.67428 54.5427 6.12539 55.5111 7.0276C56.4795 7.92982 56.9637 9.18381 56.9637 10.7896C56.9637 11.5759 56.7072 12.3374 56.194 13.0741C55.6891 13.8108 54.9979 14.3612 54.1205 14.7254C55.1138 15.0399 55.8794 15.5614 56.4175 16.2898C56.9637 17.0182 57.2369 17.908 57.2369 18.9592C57.2369 20.5815 56.7072 21.8686 55.6477 22.8205C54.5882 23.7724 53.21 24.2483 51.5132 24.2483C49.8164 24.2483 48.4341 23.7889 47.3663 22.8702C46.3069 21.9514 45.7771 20.7388 45.7771 19.2323H48.0865C48.0865 20.1842 48.3968 20.9457 49.0176 21.5168C49.6384 22.088 50.4703 22.3735 51.5132 22.3735C52.6224 22.3735 53.4708 22.0838 54.0584 21.5044C54.6461 20.925 54.94 20.0932 54.94 19.0088C54.94 17.9576 54.6172 17.1506 53.9715 16.5878C53.3259 16.0249 52.3947 15.7352 51.178 15.7187H49.4522V13.8439Z" fill="#A9A8A8"/>
</svg>
