<svg width="45" height="154" viewBox="0 0 45 154" fill="none" xmlns="http://www.w3.org/2000/svg">
<circle cx="23" cy="43" r="15.5" stroke="#C4C4C4"/>
<path d="M23.5 63L25.8868 58H20.1132L22.5 63H23.5ZM22.5 66.8831V70.8312H23.5V66.8831H22.5ZM22.5 77.7403V81.6883H23.5V77.7403H22.5ZM22.5 88.5974V92.5455H23.5L23.5 88.5974H22.5ZM22.5 99.4545V103.403H23.5V99.4545H22.5ZM22.5 110.312V114.26H23.5V110.312H22.5ZM22.5 121.169V125.117H23.5V121.169H22.5ZM22.5 132.026V134H23.5V132.026H22.5Z" fill="#C4C4C4"/>
<circle cx="22.5" cy="140.5" r="8" stroke="black" stroke-opacity="0.6"/>
<line x1="22.5" y1="127" x2="22.5" y2="135" stroke="black" stroke-opacity="0.6"/>
<line x1="22.5" y1="146" x2="22.5" y2="154" stroke="black" stroke-opacity="0.6"/>
<line x1="36" y1="140.5" x2="9" y2="140.5" stroke="black" stroke-opacity="0.6"/>
<circle cx="22.5" cy="140.5" r="5.5" fill="#070000" fill-opacity="0.6"/>
<line x1="22.5" y1="135" x2="22.5" y2="146" stroke="white"/>
<line x1="28" y1="140.5" x2="17" y2="140.5" stroke="white"/>
<path d="M6.943 15.5945L4.73299 17.8914V24H2.34916V5.9226H4.73299V14.862L12.766 5.9226H15.6465L8.53223 13.906L16.2052 24H13.3496L6.943 15.5945ZM18.7504 14.9365L19.6692 5.9226H28.9314V8.0457H21.6185L21.0722 12.9748C21.9578 12.4533 22.9635 12.1926 24.0892 12.1926C25.7364 12.1926 27.0442 12.7389 28.0126 13.8315C28.981 14.9158 29.4653 16.385 29.4653 18.2391C29.4653 20.1014 28.9604 21.5706 27.9505 22.6467C26.949 23.7144 25.546 24.2483 23.7416 24.2483C22.1441 24.2483 20.8404 23.8055 19.8306 22.9198C18.8208 22.0342 18.2455 20.8091 18.1048 19.2447H20.2776C20.4183 20.2794 20.7866 21.0616 21.3826 21.5913C21.9785 22.1128 22.7649 22.3735 23.7416 22.3735C24.8093 22.3735 25.6453 22.0093 26.2496 21.2809C26.8621 20.5525 27.1683 19.5469 27.1683 18.2639C27.1683 17.0554 26.8373 16.087 26.1751 15.3586C25.5212 14.6219 24.6479 14.2536 23.5553 14.2536C22.5538 14.2536 21.7675 14.4729 21.1963 14.9116L20.588 15.4083L18.7504 14.9365ZM35.3131 13.8439H37.0389C38.1232 13.8273 38.9758 13.5418 39.5966 12.9872C40.2173 12.4326 40.5277 11.6835 40.5277 10.7399C40.5277 8.62096 39.4724 7.56148 37.3617 7.56148C36.3684 7.56148 35.5738 7.84705 34.9779 8.41817C34.3902 8.98102 34.0964 9.73011 34.0964 10.6654H31.7994C31.7994 9.23348 32.3209 8.0457 33.3638 7.1021C34.415 6.15022 35.7477 5.67428 37.3617 5.67428C39.0668 5.67428 40.4036 6.12539 41.372 7.0276C42.3404 7.92982 42.8247 9.18381 42.8247 10.7896C42.8247 11.5759 42.5681 12.3374 42.0549 13.0741C41.55 13.8108 40.8588 14.3612 39.9814 14.7254C40.9747 15.0399 41.7403 15.5614 42.2784 16.2898C42.8247 17.0182 43.0978 17.908 43.0978 18.9592C43.0978 20.5815 42.5681 21.8686 41.5086 22.8205C40.4491 23.7724 39.071 24.2483 37.3741 24.2483C35.6773 24.2483 34.295 23.7889 33.2272 22.8702C32.1678 21.9514 31.638 20.7388 31.638 19.2323H33.9474C33.9474 20.1842 34.2578 20.9457 34.8785 21.5168C35.4993 22.088 36.3312 22.3735 37.3741 22.3735C38.4833 22.3735 39.3317 22.0838 39.9194 21.5044C40.507 20.925 40.8009 20.0932 40.8009 19.0088C40.8009 17.9576 40.4781 17.1506 39.8325 16.5878C39.1868 16.0249 38.2556 15.7352 37.0389 15.7187H35.3131V13.8439Z" fill="#A9A8A8"/>
</svg>
