<svg width="45" height="154" viewBox="0 0 45 154" fill="none" xmlns="http://www.w3.org/2000/svg">
<circle cx="23" cy="43" r="15.5" stroke="#C4C4C4"/>
<path d="M23.5 63L25.8868 58H20.1132L22.5 63H23.5ZM22.5 66.8831V70.8312H23.5V66.8831H22.5ZM22.5 77.7403V81.6883H23.5V77.7403H22.5ZM22.5 88.5974V92.5455H23.5L23.5 88.5974H22.5ZM22.5 99.4545V103.403H23.5V99.4545H22.5ZM22.5 110.312V114.26H23.5V110.312H22.5ZM22.5 121.169V125.117H23.5V121.169H22.5ZM22.5 132.026V134H23.5V132.026H22.5Z" fill="#C4C4C4"/>
<circle cx="22.5" cy="140.5" r="8" stroke="black" stroke-opacity="0.6"/>
<line x1="22.5" y1="127" x2="22.5" y2="135" stroke="black" stroke-opacity="0.6"/>
<line x1="22.5" y1="146" x2="22.5" y2="154" stroke="black" stroke-opacity="0.6"/>
<line x1="36" y1="140.5" x2="9" y2="140.5" stroke="black" stroke-opacity="0.6"/>
<circle cx="22.5" cy="140.5" r="5.5" fill="#070000" fill-opacity="0.6"/>
<line x1="22.5" y1="135" x2="22.5" y2="146" stroke="white"/>
<line x1="28" y1="140.5" x2="17" y2="140.5" stroke="white"/>
<path d="M6.943 15.5945L4.73299 17.8914V24H2.34916V5.9226H4.73299V14.862L12.766 5.9226H15.6465L8.53223 13.906L16.2052 24H13.3496L6.943 15.5945ZM18.7504 14.9365L19.6692 5.9226H28.9314V8.0457H21.6185L21.0722 12.9748C21.9578 12.4533 22.9635 12.1926 24.0892 12.1926C25.7364 12.1926 27.0442 12.7389 28.0126 13.8315C28.981 14.9158 29.4653 16.385 29.4653 18.2391C29.4653 20.1014 28.9604 21.5706 27.9505 22.6467C26.949 23.7144 25.546 24.2483 23.7416 24.2483C22.1441 24.2483 20.8404 23.8055 19.8306 22.9198C18.8208 22.0342 18.2455 20.8091 18.1048 19.2447H20.2776C20.4183 20.2794 20.7866 21.0616 21.3826 21.5913C21.9785 22.1128 22.7649 22.3735 23.7416 22.3735C24.8093 22.3735 25.6453 22.0093 26.2496 21.2809C26.8621 20.5525 27.1683 19.5469 27.1683 18.2639C27.1683 17.0554 26.8373 16.087 26.1751 15.3586C25.5212 14.6219 24.6479 14.2536 23.5553 14.2536C22.5538 14.2536 21.7675 14.4729 21.1963 14.9116L20.588 15.4083L18.7504 14.9365ZM43.6441 7.21384L36.1574 24H33.7487L41.2106 7.8098H31.427V5.9226H43.6441V7.21384Z" fill="#A9A8A8"/>
</svg>
