<svg width="45" height="154" viewBox="0 0 45 154" fill="none" xmlns="http://www.w3.org/2000/svg">
<circle cx="23" cy="43" r="15.5" stroke="#C4C4C4"/>
<path d="M23.5 63L25.8868 58H20.1132L22.5 63H23.5ZM22.5 66.8831V70.8312H23.5V66.8831H22.5ZM22.5 77.7403V81.6883H23.5V77.7403H22.5ZM22.5 88.5974V92.5455H23.5L23.5 88.5974H22.5ZM22.5 99.4545V103.403H23.5V99.4545H22.5ZM22.5 110.312V114.26H23.5V110.312H22.5ZM22.5 121.169V125.117H23.5V121.169H22.5ZM22.5 132.026V134H23.5V132.026H22.5Z" fill="#C4C4C4"/>
<circle cx="22.5" cy="140.5" r="8" stroke="black" stroke-opacity="0.6"/>
<line x1="22.5" y1="127" x2="22.5" y2="135" stroke="black" stroke-opacity="0.6"/>
<line x1="22.5" y1="146" x2="22.5" y2="154" stroke="black" stroke-opacity="0.6"/>
<line x1="36" y1="140.5" x2="9" y2="140.5" stroke="black" stroke-opacity="0.6"/>
<circle cx="22.5" cy="140.5" r="5.5" fill="#070000" fill-opacity="0.6"/>
<line x1="22.5" y1="135" x2="22.5" y2="146" stroke="white"/>
<line x1="28" y1="140.5" x2="17" y2="140.5" stroke="white"/>
<path d="M6.943 15.5945L4.73299 17.8914V24H2.34916V5.9226H4.73299V14.862L12.766 5.9226H15.6465L8.53223 13.906L16.2052 24H13.3496L6.943 15.5945ZM26.709 5.91018V7.85946H26.2868C24.4989 7.89257 23.0753 8.42231 22.0158 9.44868C20.9563 10.4751 20.3438 11.9194 20.1782 13.7818C21.1301 12.6892 22.4296 12.1429 24.0768 12.1429C25.6495 12.1429 26.9035 12.6975 27.8388 13.8066C28.7824 14.9158 29.2542 16.3477 29.2542 18.1025C29.2542 19.9649 28.7451 21.4548 27.7271 22.5722C26.7172 23.6896 25.3598 24.2483 23.6547 24.2483C21.9247 24.2483 20.5217 23.5861 19.4457 22.2618C18.3697 20.9292 17.8317 19.2158 17.8317 17.1216V16.2401C17.8317 12.9127 18.5394 10.3716 19.9548 8.61683C21.3784 6.85378 23.4933 5.95157 26.2992 5.91018H26.709ZM23.6919 14.0549C22.9056 14.0549 22.1813 14.2908 21.5192 14.7626C20.857 15.2344 20.3976 15.8263 20.141 16.5381V17.3824C20.141 18.8723 20.4762 20.0725 21.1467 20.983C21.8171 21.8935 22.6531 22.3487 23.6547 22.3487C24.6893 22.3487 25.5005 21.9679 26.0882 21.2064C26.6841 20.4449 26.9821 19.4475 26.9821 18.2142C26.9821 16.9727 26.68 15.9711 26.0757 15.2096C25.4798 14.4398 24.6852 14.0549 23.6919 14.0549ZM43.6441 7.21384L36.1574 24H33.7487L41.2106 7.8098H31.427V5.9226H43.6441V7.21384Z" fill="#A9A8A8"/>
</svg>
