<svg width="45" height="154" viewBox="0 0 45 154" fill="none" xmlns="http://www.w3.org/2000/svg">
<circle cx="23" cy="43" r="15.5" stroke="#C4C4C4"/>
<path d="M23.5 63L25.8868 58H20.1132L22.5 63H23.5ZM22.5 66.8831V70.8312H23.5V66.8831H22.5ZM22.5 77.7403V81.6883H23.5V77.7403H22.5ZM22.5 88.5974V92.5455H23.5L23.5 88.5974H22.5ZM22.5 99.4545V103.403H23.5V99.4545H22.5ZM22.5 110.312V114.26H23.5V110.312H22.5ZM22.5 121.169V125.117H23.5V121.169H22.5ZM22.5 132.026V134H23.5V132.026H22.5Z" fill="#C4C4C4"/>
<circle cx="22.5" cy="140.5" r="8" stroke="black" stroke-opacity="0.6"/>
<line x1="22.5" y1="127" x2="22.5" y2="135" stroke="black" stroke-opacity="0.6"/>
<line x1="22.5" y1="146" x2="22.5" y2="154" stroke="black" stroke-opacity="0.6"/>
<line x1="36" y1="140.5" x2="9" y2="140.5" stroke="black" stroke-opacity="0.6"/>
<circle cx="22.5" cy="140.5" r="5.5" fill="#070000" fill-opacity="0.6"/>
<line x1="22.5" y1="135" x2="22.5" y2="146" stroke="white"/>
<line x1="28" y1="140.5" x2="17" y2="140.5" stroke="white"/>
<path d="M6.943 15.5945L4.73299 17.8914V24H2.34916V5.9226H4.73299V14.862L12.766 5.9226H15.6465L8.53223 13.906L16.2052 24H13.3496L6.943 15.5945ZM29.3659 7.21384L21.8792 24H19.4705L26.9324 7.8098H17.1488V5.9226H29.3659V7.21384ZM43.8179 24H31.9733V22.3487L38.2308 15.3959C39.1579 14.3446 39.7952 13.4921 40.1428 12.8382C40.4988 12.176 40.6767 11.4932 40.6767 10.7896C40.6767 9.84599 40.3912 9.07207 39.82 8.46784C39.2489 7.8636 38.4874 7.56148 37.5355 7.56148C36.3933 7.56148 35.5035 7.88843 34.8661 8.54233C34.2371 9.18795 33.9225 10.0902 33.9225 11.249H31.6256C31.6256 9.58526 32.1595 8.24021 33.2272 7.21384C34.3033 6.18747 35.7394 5.67428 37.5355 5.67428C39.2158 5.67428 40.5443 6.11711 41.521 7.00277C42.4977 7.88016 42.9861 9.05138 42.9861 10.5164C42.9861 12.296 41.8521 14.415 39.5841 16.8733L34.742 22.1252H43.8179V24Z" fill="#A9A8A8"/>
</svg>
