<svg width="45" height="154" viewBox="0 0 45 154" fill="none" xmlns="http://www.w3.org/2000/svg">
<circle cx="23" cy="43" r="15.5" stroke="#C4C4C4"/>
<path d="M23.5 63L25.8868 58H20.1132L22.5 63H23.5ZM22.5 66.8831V70.8312H23.5V66.8831H22.5ZM22.5 77.7403V81.6883H23.5V77.7403H22.5ZM22.5 88.5974V92.5455H23.5L23.5 88.5974H22.5ZM22.5 99.4545V103.403H23.5V99.4545H22.5ZM22.5 110.312V114.26H23.5V110.312H22.5ZM22.5 121.169V125.117H23.5V121.169H22.5ZM22.5 132.026V134H23.5V132.026H22.5Z" fill="#C4C4C4"/>
<circle cx="22.5" cy="140.5" r="8" stroke="black" stroke-opacity="0.6"/>
<line x1="22.5" y1="127" x2="22.5" y2="135" stroke="black" stroke-opacity="0.6"/>
<line x1="22.5" y1="146" x2="22.5" y2="154" stroke="black" stroke-opacity="0.6"/>
<line x1="36" y1="140.5" x2="9" y2="140.5" stroke="black" stroke-opacity="0.6"/>
<circle cx="22.5" cy="140.5" r="5.5" fill="#070000" fill-opacity="0.6"/>
<line x1="22.5" y1="135" x2="22.5" y2="146" stroke="white"/>
<line x1="28" y1="140.5" x2="17" y2="140.5" stroke="white"/>
<path d="M6.943 15.5945L4.73299 17.8914V24H2.34916V5.9226H4.73299V14.862L12.766 5.9226H15.6465L8.53223 13.906L16.2052 24H13.3496L6.943 15.5945ZM29.3659 7.21384L21.8792 24H19.4705L26.9324 7.8098H17.1488V5.9226H29.3659V7.21384ZM40.9871 5.91018V7.85946H40.565C38.7771 7.89257 37.3534 8.42231 36.294 9.44868C35.2345 10.4751 34.622 11.9194 34.4564 13.7818C35.4083 12.6892 36.7078 12.1429 38.355 12.1429C39.9276 12.1429 41.1816 12.6975 42.117 13.8066C43.0606 14.9158 43.5324 16.3477 43.5324 18.1025C43.5324 19.9649 43.0233 21.4548 42.0052 22.5722C40.9954 23.6896 39.6379 24.2483 37.9328 24.2483C36.2029 24.2483 34.7999 23.5861 33.7239 22.2618C32.6478 20.9292 32.1098 19.2158 32.1098 17.1216V16.2401C32.1098 12.9127 32.8175 10.3716 34.2329 8.61683C35.6566 6.85378 37.7714 5.95157 40.5774 5.91018H40.9871ZM37.9701 14.0549C37.1837 14.0549 36.4595 14.2908 35.7973 14.7626C35.1351 15.2344 34.6758 15.8263 34.4192 16.5381V17.3824C34.4192 18.8723 34.7544 20.0725 35.4248 20.983C36.0953 21.8935 36.9313 22.3487 37.9328 22.3487C38.9675 22.3487 39.7787 21.9679 40.3663 21.2064C40.9623 20.4449 41.2603 19.4475 41.2603 18.2142C41.2603 16.9727 40.9582 15.9711 40.3539 15.2096C39.758 14.4398 38.9633 14.0549 37.9701 14.0549Z" fill="#A9A8A8"/>
</svg>
