<svg width="45" height="154" viewBox="0 0 45 154" fill="none" xmlns="http://www.w3.org/2000/svg">
<circle cx="23" cy="43" r="15.5" stroke="#C4C4C4"/>
<path d="M23.5 63L25.8868 58H20.1132L22.5 63H23.5ZM22.5 66.8831V70.8312H23.5V66.8831H22.5ZM22.5 77.7403V81.6883H23.5V77.7403H22.5ZM22.5 88.5974V92.5455H23.5L23.5 88.5974H22.5ZM22.5 99.4545V103.403H23.5V99.4545H22.5ZM22.5 110.312V114.26H23.5V110.312H22.5ZM22.5 121.169V125.117H23.5V121.169H22.5ZM22.5 132.026V134H23.5V132.026H22.5Z" fill="#C4C4C4"/>
<circle cx="22.5" cy="140.5" r="8" stroke="black" stroke-opacity="0.6"/>
<line x1="22.5" y1="127" x2="22.5" y2="135" stroke="black" stroke-opacity="0.6"/>
<line x1="22.5" y1="146" x2="22.5" y2="154" stroke="black" stroke-opacity="0.6"/>
<line x1="36" y1="140.5" x2="9" y2="140.5" stroke="black" stroke-opacity="0.6"/>
<circle cx="22.5" cy="140.5" r="5.5" fill="#070000" fill-opacity="0.6"/>
<line x1="22.5" y1="135" x2="22.5" y2="146" stroke="white"/>
<line x1="28" y1="140.5" x2="17" y2="140.5" stroke="white"/>
<path d="M6.943 15.5945L4.73299 17.8914V24H2.34916V5.9226H4.73299V14.862L12.766 5.9226H15.6465L8.53223 13.906L16.2052 24H13.3496L6.943 15.5945ZM28.6582 10.6406C28.6582 11.5428 28.4182 12.3457 27.9381 13.0493C27.4663 13.7528 26.8248 14.3033 26.0137 14.7006C26.9573 15.1061 27.7022 15.698 28.2485 16.476C28.8031 17.2541 29.0804 18.1356 29.0804 19.1206C29.0804 20.685 28.5506 21.9307 27.4912 22.8577C26.4399 23.7848 25.0535 24.2483 23.3319 24.2483C21.5936 24.2483 20.1989 23.7848 19.1477 22.8577C18.1048 21.9224 17.5833 20.6767 17.5833 19.1206C17.5833 18.1439 17.8482 17.2624 18.378 16.476C18.916 15.6897 19.6568 15.0937 20.6004 14.6882C19.7975 14.2908 19.1643 13.7404 18.7008 13.0369C18.2372 12.3333 18.0055 11.5345 18.0055 10.6406C18.0055 9.1176 18.4938 7.90913 19.4705 7.01519C20.4473 6.12125 21.7344 5.67428 23.3319 5.67428C24.9211 5.67428 26.204 6.12125 27.1808 7.01519C28.1657 7.90913 28.6582 9.1176 28.6582 10.6406ZM26.7834 19.0709C26.7834 18.0611 26.4606 17.2375 25.815 16.6002C25.1777 15.9628 24.3417 15.6442 23.307 15.6442C22.2724 15.6442 21.4405 15.9587 20.8115 16.5878C20.1907 17.2168 19.8803 18.0446 19.8803 19.0709C19.8803 20.0973 20.1824 20.9043 20.7866 21.492C21.3991 22.0797 22.2475 22.3735 23.3319 22.3735C24.4079 22.3735 25.2522 22.0797 25.8647 21.492C26.4772 20.8961 26.7834 20.089 26.7834 19.0709ZM23.3319 7.56148C22.4296 7.56148 21.6971 7.84291 21.1343 8.40576C20.5797 8.96033 20.3024 9.71769 20.3024 10.6778C20.3024 11.5966 20.5756 12.3416 21.1218 12.9127C21.6764 13.4755 22.4131 13.757 23.3319 13.757C24.2506 13.757 24.9832 13.4755 25.5295 12.9127C26.084 12.3416 26.3613 11.5966 26.3613 10.6778C26.3613 9.75908 26.0757 9.00999 25.5046 8.43059C24.9335 7.85118 24.2092 7.56148 23.3319 7.56148ZM42.9364 10.6406C42.9364 11.5428 42.6964 12.3457 42.2163 13.0493C41.7445 13.7528 41.103 14.3033 40.2918 14.7006C41.2354 15.1061 41.9804 15.698 42.5267 16.476C43.0813 17.2541 43.3585 18.1356 43.3585 19.1206C43.3585 20.685 42.8288 21.9307 41.7693 22.8577C40.7181 23.7848 39.3317 24.2483 37.61 24.2483C35.8718 24.2483 34.4771 23.7848 33.4259 22.8577C32.383 21.9224 31.8615 20.6767 31.8615 19.1206C31.8615 18.1439 32.1264 17.2624 32.6561 16.476C33.1941 15.6897 33.9349 15.0937 34.8785 14.6882C34.0757 14.2908 33.4425 13.7404 32.9789 13.0369C32.5154 12.3333 32.2836 11.5345 32.2836 10.6406C32.2836 9.1176 32.772 7.90913 33.7487 7.01519C34.7254 6.12125 36.0125 5.67428 37.61 5.67428C39.1992 5.67428 40.4822 6.12125 41.4589 7.01519C42.4439 7.90913 42.9364 9.1176 42.9364 10.6406ZM41.0616 19.0709C41.0616 18.0611 40.7388 17.2375 40.0932 16.6002C39.4558 15.9628 38.6198 15.6442 37.5852 15.6442C36.5505 15.6442 35.7187 15.9587 35.0896 16.5878C34.4688 17.2168 34.1584 18.0446 34.1584 19.0709C34.1584 20.0973 34.4606 20.9043 35.0648 21.492C35.6773 22.0797 36.5257 22.3735 37.61 22.3735C38.6861 22.3735 39.5303 22.0797 40.1428 21.492C40.7554 20.8961 41.0616 20.089 41.0616 19.0709ZM37.61 7.56148C36.7078 7.56148 35.9753 7.84291 35.4124 8.40576C34.8579 8.96033 34.5806 9.71769 34.5806 10.6778C34.5806 11.5966 34.8537 12.3416 35.4 12.9127C35.9546 13.4755 36.6913 13.757 37.61 13.757C38.5288 13.757 39.2613 13.4755 39.8076 12.9127C40.3622 12.3416 40.6395 11.5966 40.6395 10.6778C40.6395 9.75908 40.3539 9.00999 39.7828 8.43059C39.2117 7.85118 38.4874 7.56148 37.61 7.56148Z" fill="#A9A8A8"/>
</svg>
