<svg width="45" height="154" viewBox="0 0 45 154" fill="none" xmlns="http://www.w3.org/2000/svg">
<circle cx="23" cy="43" r="15.5" stroke="#C4C4C4"/>
<path d="M23.5 63L25.8868 58H20.1132L22.5 63H23.5ZM22.5 66.8831V70.8312H23.5V66.8831H22.5ZM22.5 77.7403V81.6883H23.5V77.7403H22.5ZM22.5 88.5974V92.5455H23.5L23.5 88.5974H22.5ZM22.5 99.4545V103.403H23.5V99.4545H22.5ZM22.5 110.312V114.26H23.5V110.312H22.5ZM22.5 121.169V125.117H23.5V121.169H22.5ZM22.5 132.026V134H23.5V132.026H22.5Z" fill="#C4C4C4"/>
<circle cx="22.5" cy="140.5" r="8" stroke="black" stroke-opacity="0.6"/>
<line x1="22.5" y1="127" x2="22.5" y2="135" stroke="black" stroke-opacity="0.6"/>
<line x1="22.5" y1="146" x2="22.5" y2="154" stroke="black" stroke-opacity="0.6"/>
<line x1="36" y1="140.5" x2="9" y2="140.5" stroke="black" stroke-opacity="0.6"/>
<circle cx="22.5" cy="140.5" r="5.5" fill="#070000" fill-opacity="0.6"/>
<line x1="22.5" y1="135" x2="22.5" y2="146" stroke="white"/>
<line x1="28" y1="140.5" x2="17" y2="140.5" stroke="white"/>
<path d="M6.943 15.5945L4.73299 17.8914V24H2.34916V5.9226H4.73299V14.862L12.766 5.9226H15.6465L8.53223 13.906L16.2052 24H13.3496L6.943 15.5945ZM28.6582 10.6406C28.6582 11.5428 28.4182 12.3457 27.9381 13.0493C27.4663 13.7528 26.8248 14.3033 26.0137 14.7006C26.9573 15.1061 27.7022 15.698 28.2485 16.476C28.8031 17.2541 29.0804 18.1356 29.0804 19.1206C29.0804 20.685 28.5506 21.9307 27.4912 22.8577C26.4399 23.7848 25.0535 24.2483 23.3319 24.2483C21.5936 24.2483 20.1989 23.7848 19.1477 22.8577C18.1048 21.9224 17.5833 20.6767 17.5833 19.1206C17.5833 18.1439 17.8482 17.2624 18.378 16.476C18.916 15.6897 19.6568 15.0937 20.6004 14.6882C19.7975 14.2908 19.1643 13.7404 18.7008 13.0369C18.2372 12.3333 18.0055 11.5345 18.0055 10.6406C18.0055 9.1176 18.4938 7.90913 19.4705 7.01519C20.4473 6.12125 21.7344 5.67428 23.3319 5.67428C24.9211 5.67428 26.204 6.12125 27.1808 7.01519C28.1657 7.90913 28.6582 9.1176 28.6582 10.6406ZM26.7834 19.0709C26.7834 18.0611 26.4606 17.2375 25.815 16.6002C25.1777 15.9628 24.3417 15.6442 23.307 15.6442C22.2724 15.6442 21.4405 15.9587 20.8115 16.5878C20.1907 17.2168 19.8803 18.0446 19.8803 19.0709C19.8803 20.0973 20.1824 20.9043 20.7866 21.492C21.3991 22.0797 22.2475 22.3735 23.3319 22.3735C24.4079 22.3735 25.2522 22.0797 25.8647 21.492C26.4772 20.8961 26.7834 20.089 26.7834 19.0709ZM23.3319 7.56148C22.4296 7.56148 21.6971 7.84291 21.1343 8.40576C20.5797 8.96033 20.3024 9.71769 20.3024 10.6778C20.3024 11.5966 20.5756 12.3416 21.1218 12.9127C21.6764 13.4755 22.4131 13.757 23.3319 13.757C24.2506 13.757 24.9832 13.4755 25.5295 12.9127C26.084 12.3416 26.3613 11.5966 26.3613 10.6778C26.3613 9.75908 26.0757 9.00999 25.5046 8.43059C24.9335 7.85118 24.2092 7.56148 23.3319 7.56148ZM40.7761 16.0539C40.296 16.625 39.7207 17.0844 39.0503 17.432C38.3881 17.7797 37.6597 17.9535 36.8651 17.9535C35.8222 17.9535 34.9117 17.6969 34.1336 17.1837C33.3638 16.6705 32.7679 15.9504 32.3457 15.0234C31.9236 14.0881 31.7125 13.0575 31.7125 11.9318C31.7125 10.7234 31.9401 9.63492 32.3954 8.66649C32.8589 7.69806 33.5128 6.95725 34.3571 6.44406C35.2014 5.93087 36.1863 5.67428 37.312 5.67428C39.0999 5.67428 40.507 6.34473 41.5334 7.68564C42.5681 9.01827 43.0854 10.8393 43.0854 13.1486V13.819C43.0854 17.3369 42.3901 19.9069 40.9995 21.5293C39.609 23.1433 37.5107 23.971 34.7047 24.0124H34.2578V22.0756H34.742C36.6375 22.0424 38.0942 21.5499 39.1123 20.5981C40.1304 19.6379 40.685 18.1232 40.7761 16.0539ZM37.2376 16.0539C38.0073 16.0539 38.715 15.818 39.3607 15.3462C40.0146 14.8744 40.4905 14.2908 40.7885 13.5956V12.6768C40.7885 11.1703 40.4615 9.94532 39.8076 9.00172C39.1537 8.05811 38.326 7.58631 37.3245 7.58631C36.3146 7.58631 35.5035 7.97534 34.891 8.7534C34.2785 9.52318 33.9722 10.5413 33.9722 11.8077C33.9722 13.041 34.266 14.0591 34.8537 14.862C35.4497 15.6566 36.2443 16.0539 37.2376 16.0539Z" fill="#A9A8A8"/>
</svg>
