<svg width="45" height="154" viewBox="0 0 45 154" fill="none" xmlns="http://www.w3.org/2000/svg">
<circle cx="23" cy="43" r="15.5" stroke="#C4C4C4"/>
<path d="M23.5 63L25.8868 58H20.1132L22.5 63H23.5ZM22.5 66.8831V70.8312H23.5V66.8831H22.5ZM22.5 77.7403V81.6883H23.5V77.7403H22.5ZM22.5 88.5974V92.5455H23.5L23.5 88.5974H22.5ZM22.5 99.4545V103.403H23.5V99.4545H22.5ZM22.5 110.312V114.26H23.5V110.312H22.5ZM22.5 121.169V125.117H23.5V121.169H22.5ZM22.5 132.026V134H23.5V132.026H22.5Z" fill="#C4C4C4"/>
<circle cx="22.5" cy="140.5" r="8" stroke="black" stroke-opacity="0.6"/>
<line x1="22.5" y1="127" x2="22.5" y2="135" stroke="black" stroke-opacity="0.6"/>
<line x1="22.5" y1="146" x2="22.5" y2="154" stroke="black" stroke-opacity="0.6"/>
<line x1="36" y1="140.5" x2="9" y2="140.5" stroke="black" stroke-opacity="0.6"/>
<circle cx="22.5" cy="140.5" r="5.5" fill="#070000" fill-opacity="0.6"/>
<line x1="22.5" y1="135" x2="22.5" y2="146" stroke="white"/>
<line x1="28" y1="140.5" x2="17" y2="140.5" stroke="white"/>
<path d="M6.943 15.5945L4.73299 17.8914V24H2.34916V5.9226H4.73299V14.862L12.766 5.9226H15.6465L8.53223 13.906L16.2052 24H13.3496L6.943 15.5945ZM26.4979 16.0539C26.0178 16.625 25.4425 17.0844 24.7721 17.432C24.1099 17.7797 23.3815 17.9535 22.5869 17.9535C21.544 17.9535 20.6335 17.6969 19.8554 17.1837C19.0857 16.6705 18.4897 15.9504 18.0676 15.0234C17.6454 14.0881 17.4344 13.0575 17.4344 11.9318C17.4344 10.7234 17.662 9.63492 18.1172 8.66649C18.5807 7.69806 19.2346 6.95725 20.0789 6.44406C20.9232 5.93087 21.9082 5.67428 23.0339 5.67428C24.8218 5.67428 26.2289 6.34473 27.2553 7.68564C28.2899 9.01827 28.8072 10.8393 28.8072 13.1486V13.819C28.8072 17.3369 28.1119 19.9069 26.7214 21.5293C25.3308 23.1433 23.2325 23.971 20.4266 24.0124H19.9796V22.0756H20.4638C22.3593 22.0424 23.8161 21.5499 24.8342 20.5981C25.8523 19.6379 26.4068 18.1232 26.4979 16.0539ZM22.9594 16.0539C23.7292 16.0539 24.4369 15.818 25.0825 15.3462C25.7364 14.8744 26.2123 14.2908 26.5103 13.5956V12.6768C26.5103 11.1703 26.1834 9.94532 25.5295 9.00172C24.8756 8.05811 24.0478 7.58631 23.0463 7.58631C22.0365 7.58631 21.2253 7.97534 20.6128 8.7534C20.0003 9.52318 19.694 10.5413 19.694 11.8077C19.694 13.041 19.9879 14.0591 20.5756 14.862C21.1715 15.6566 21.9661 16.0539 22.9594 16.0539ZM42.9364 10.6406C42.9364 11.5428 42.6964 12.3457 42.2163 13.0493C41.7445 13.7528 41.103 14.3033 40.2918 14.7006C41.2354 15.1061 41.9804 15.698 42.5267 16.476C43.0813 17.2541 43.3585 18.1356 43.3585 19.1206C43.3585 20.685 42.8288 21.9307 41.7693 22.8577C40.7181 23.7848 39.3317 24.2483 37.61 24.2483C35.8718 24.2483 34.4771 23.7848 33.4259 22.8577C32.383 21.9224 31.8615 20.6767 31.8615 19.1206C31.8615 18.1439 32.1264 17.2624 32.6561 16.476C33.1941 15.6897 33.9349 15.0937 34.8785 14.6882C34.0757 14.2908 33.4425 13.7404 32.9789 13.0369C32.5154 12.3333 32.2836 11.5345 32.2836 10.6406C32.2836 9.1176 32.772 7.90913 33.7487 7.01519C34.7254 6.12125 36.0125 5.67428 37.61 5.67428C39.1992 5.67428 40.4822 6.12125 41.4589 7.01519C42.4439 7.90913 42.9364 9.1176 42.9364 10.6406ZM41.0616 19.0709C41.0616 18.0611 40.7388 17.2375 40.0932 16.6002C39.4558 15.9628 38.6198 15.6442 37.5852 15.6442C36.5505 15.6442 35.7187 15.9587 35.0896 16.5878C34.4688 17.2168 34.1584 18.0446 34.1584 19.0709C34.1584 20.0973 34.4606 20.9043 35.0648 21.492C35.6773 22.0797 36.5257 22.3735 37.61 22.3735C38.6861 22.3735 39.5303 22.0797 40.1428 21.492C40.7554 20.8961 41.0616 20.089 41.0616 19.0709ZM37.61 7.56148C36.7078 7.56148 35.9753 7.84291 35.4124 8.40576C34.8579 8.96033 34.5806 9.71769 34.5806 10.6778C34.5806 11.5966 34.8537 12.3416 35.4 12.9127C35.9546 13.4755 36.6913 13.757 37.61 13.757C38.5288 13.757 39.2613 13.4755 39.8076 12.9127C40.3622 12.3416 40.6395 11.5966 40.6395 10.6778C40.6395 9.75908 40.3539 9.00999 39.7828 8.43059C39.2117 7.85118 38.4874 7.56148 37.61 7.56148Z" fill="#A9A8A8"/>
</svg>
