<svg width="45" height="154" viewBox="0 0 45 154" fill="none" xmlns="http://www.w3.org/2000/svg">
<circle cx="23" cy="43" r="15.5" stroke="#C4C4C4"/>
<path d="M23.5 63L25.8868 58H20.1132L22.5 63H23.5ZM22.5 66.8831V70.8312H23.5V66.8831H22.5ZM22.5 77.7403V81.6883H23.5V77.7403H22.5ZM22.5 88.5974V92.5455H23.5L23.5 88.5974H22.5ZM22.5 99.4545V103.403H23.5V99.4545H22.5ZM22.5 110.312V114.26H23.5V110.312H22.5ZM22.5 121.169V125.117H23.5V121.169H22.5ZM22.5 132.026V134H23.5V132.026H22.5Z" fill="#C4C4C4"/>
<circle cx="22.5" cy="140.5" r="8" stroke="black" stroke-opacity="0.6"/>
<line x1="22.5" y1="127" x2="22.5" y2="135" stroke="black" stroke-opacity="0.6"/>
<line x1="22.5" y1="146" x2="22.5" y2="154" stroke="black" stroke-opacity="0.6"/>
<line x1="36" y1="140.5" x2="9" y2="140.5" stroke="black" stroke-opacity="0.6"/>
<circle cx="22.5" cy="140.5" r="5.5" fill="#070000" fill-opacity="0.6"/>
<line x1="22.5" y1="135" x2="22.5" y2="146" stroke="white"/>
<line x1="28" y1="140.5" x2="17" y2="140.5" stroke="white"/>
<path d="M6.943 15.5945L4.73299 17.8914V24H2.34916V5.9226H4.73299V14.862L12.766 5.9226H15.6465L8.53223 13.906L16.2052 24H13.3496L6.943 15.5945ZM26.4979 16.0539C26.0178 16.625 25.4425 17.0844 24.7721 17.432C24.1099 17.7797 23.3815 17.9535 22.5869 17.9535C21.544 17.9535 20.6335 17.6969 19.8554 17.1837C19.0857 16.6705 18.4897 15.9504 18.0676 15.0234C17.6454 14.0881 17.4344 13.0575 17.4344 11.9318C17.4344 10.7234 17.662 9.63492 18.1172 8.66649C18.5807 7.69806 19.2346 6.95725 20.0789 6.44406C20.9232 5.93087 21.9082 5.67428 23.0339 5.67428C24.8218 5.67428 26.2289 6.34473 27.2553 7.68564C28.2899 9.01827 28.8072 10.8393 28.8072 13.1486V13.819C28.8072 17.3369 28.1119 19.9069 26.7214 21.5293C25.3308 23.1433 23.2325 23.971 20.4266 24.0124H19.9796V22.0756H20.4638C22.3593 22.0424 23.8161 21.5499 24.8342 20.5981C25.8523 19.6379 26.4068 18.1232 26.4979 16.0539ZM22.9594 16.0539C23.7292 16.0539 24.4369 15.818 25.0825 15.3462C25.7364 14.8744 26.2123 14.2908 26.5103 13.5956V12.6768C26.5103 11.1703 26.1834 9.94532 25.5295 9.00172C24.8756 8.05811 24.0478 7.58631 23.0463 7.58631C22.0365 7.58631 21.2253 7.97534 20.6128 8.7534C20.0003 9.52318 19.694 10.5413 19.694 11.8077C19.694 13.041 19.9879 14.0591 20.5756 14.862C21.1715 15.6566 21.9661 16.0539 22.9594 16.0539ZM40.7761 16.0539C40.296 16.625 39.7207 17.0844 39.0503 17.432C38.3881 17.7797 37.6597 17.9535 36.8651 17.9535C35.8222 17.9535 34.9117 17.6969 34.1336 17.1837C33.3638 16.6705 32.7679 15.9504 32.3457 15.0234C31.9236 14.0881 31.7125 13.0575 31.7125 11.9318C31.7125 10.7234 31.9401 9.63492 32.3954 8.66649C32.8589 7.69806 33.5128 6.95725 34.3571 6.44406C35.2014 5.93087 36.1863 5.67428 37.312 5.67428C39.0999 5.67428 40.507 6.34473 41.5334 7.68564C42.5681 9.01827 43.0854 10.8393 43.0854 13.1486V13.819C43.0854 17.3369 42.3901 19.9069 40.9995 21.5293C39.609 23.1433 37.5107 23.971 34.7047 24.0124H34.2578V22.0756H34.742C36.6375 22.0424 38.0942 21.5499 39.1123 20.5981C40.1304 19.6379 40.685 18.1232 40.7761 16.0539ZM37.2376 16.0539C38.0073 16.0539 38.715 15.818 39.3607 15.3462C40.0146 14.8744 40.4905 14.2908 40.7885 13.5956V12.6768C40.7885 11.1703 40.4615 9.94532 39.8076 9.00172C39.1537 8.05811 38.326 7.58631 37.3245 7.58631C36.3146 7.58631 35.5035 7.97534 34.891 8.7534C34.2785 9.52318 33.9722 10.5413 33.9722 11.8077C33.9722 13.041 34.266 14.0591 34.8537 14.862C35.4497 15.6566 36.2443 16.0539 37.2376 16.0539Z" fill="#A9A8A8"/>
</svg>
